<svg width="21" height="25" viewBox="0 0 21 25" fill="none" xmlns="http://www.w3.org/2000/svg">
<path d="M19.4124 10.1791C19.4124 17.3179 10.2062 23.4373 10.2062 23.4373C10.2062 23.4373 1 17.3179 1 10.1791C1 7.74465 1.96994 5.40991 3.69644 3.6885C5.42294 1.96708 7.76458 1 10.2062 1C12.6479 1 14.9895 1.96708 16.716 3.6885C18.4425 5.40991 19.4124 7.74465 19.4124 10.1791V10.1791Z" stroke="white" stroke-width="2" stroke-linecap="round" stroke-linejoin="round"/>
<path d="M10.1164 13.6492C12.0529 13.6492 13.6228 12.084 13.6228 10.1532C13.6228 8.22244 12.0529 6.65723 10.1164 6.65723C8.17994 6.65723 6.61011 8.22244 6.61011 10.1532C6.61011 12.084 8.17994 13.6492 10.1164 13.6492Z" stroke="white" stroke-width="2" stroke-linecap="round" stroke-linejoin="round"/>
</svg>
