<svg width="107" height="13" viewBox="0 0 107 13" fill="none" xmlns="http://www.w3.org/2000/svg">
<path d="M5.376 12.176C4.43733 12.176 3.616 11.936 2.912 11.456C2.208 10.9653 1.65333 10.288 1.248 9.424C0.853333 8.54933 0.656 7.54133 0.656 6.4C0.656 5.25867 0.853333 4.256 1.248 3.392C1.65333 2.51733 2.208 1.84 2.912 1.36C3.616 0.869333 4.43733 0.624 5.376 0.624C6.304 0.624 7.12 0.869333 7.824 1.36C8.528 1.84 9.07733 2.51733 9.472 3.392C9.87733 4.256 10.08 5.25867 10.08 6.4C10.08 7.54133 9.87733 8.54933 9.472 9.424C9.07733 10.288 8.528 10.9653 7.824 11.456C7.12 11.936 6.304 12.176 5.376 12.176ZM5.376 10.784C6.016 10.784 6.57067 10.608 7.04 10.256C7.50933 9.89333 7.872 9.38133 8.128 8.72C8.384 8.05867 8.512 7.28533 8.512 6.4C8.512 5.504 8.384 4.73067 8.128 4.08C7.872 3.41867 7.50933 2.912 7.04 2.56C6.57067 2.19733 6.016 2.016 5.376 2.016C4.736 2.016 4.176 2.19733 3.696 2.56C3.22667 2.912 2.864 3.41867 2.608 4.08C2.352 4.73067 2.224 5.504 2.224 6.4C2.224 7.28533 2.352 8.05867 2.608 8.72C2.864 9.38133 3.22667 9.89333 3.696 10.256C4.176 10.608 4.736 10.784 5.376 10.784ZM11.1121 12V10.88L15.6561 6.048C15.9655 5.728 16.2055 5.44 16.3761 5.184C16.5468 4.928 16.6641 4.688 16.7281 4.464C16.8028 4.22933 16.8401 3.984 16.8401 3.728C16.8401 3.22667 16.6375 2.81067 16.2321 2.48C15.8268 2.14933 15.3148 1.984 14.6961 1.984C14.1841 1.984 13.7041 2.08533 13.2561 2.288C12.8081 2.49067 12.3121 2.84267 11.7681 3.344L10.9041 2.288C11.5015 1.73333 12.1148 1.31733 12.7441 1.04C13.3841 0.762666 14.0455 0.624 14.7281 0.624C15.4428 0.624 16.0721 0.752 16.6161 1.008C17.1601 1.264 17.5815 1.62133 17.8801 2.08C18.1895 2.528 18.3441 3.04533 18.3441 3.632C18.3441 4.00533 18.2961 4.352 18.2001 4.672C18.1041 4.98133 17.9388 5.312 17.7041 5.664C17.4695 6.00533 17.1388 6.4 16.7121 6.848L13.0641 10.688L18.5681 10.672V12H11.1121ZM24.5791 12.176C23.6405 12.176 22.8191 11.936 22.1151 11.456C21.4111 10.9653 20.8565 10.288 20.4511 9.424C20.0565 8.54933 19.8591 7.54133 19.8591 6.4C19.8591 5.25867 20.0565 4.256 20.4511 3.392C20.8565 2.51733 21.4111 1.84 22.1151 1.36C22.8191 0.869333 23.6405 0.624 24.5791 0.624C25.5071 0.624 26.3231 0.869333 27.0271 1.36C27.7311 1.84 28.2805 2.51733 28.6751 3.392C29.0805 4.256 29.2831 5.25867 29.2831 6.4C29.2831 7.54133 29.0805 8.54933 28.6751 9.424C28.2805 10.288 27.7311 10.9653 27.0271 11.456C26.3231 11.936 25.5071 12.176 24.5791 12.176ZM24.5791 10.784C25.2191 10.784 25.7738 10.608 26.2431 10.256C26.7125 9.89333 27.0751 9.38133 27.3311 8.72C27.5871 8.05867 27.7151 7.28533 27.7151 6.4C27.7151 5.504 27.5871 4.73067 27.3311 4.08C27.0751 3.41867 26.7125 2.912 26.2431 2.56C25.7738 2.19733 25.2191 2.016 24.5791 2.016C23.9391 2.016 23.3791 2.19733 22.8991 2.56C22.4298 2.912 22.0671 3.41867 21.8111 4.08C21.5551 4.73067 21.4271 5.504 21.4271 6.4C21.4271 7.28533 21.5551 8.05867 21.8111 8.72C22.0671 9.38133 22.4298 9.89333 22.8991 10.256C23.3791 10.608 23.9391 10.784 24.5791 10.784ZM37.7613 12.176C36.2679 12.176 34.9719 11.6693 33.8733 10.656L34.8173 9.6C35.2973 10.0373 35.7719 10.3573 36.2413 10.56C36.7213 10.752 37.2439 10.848 37.8093 10.848C38.3213 10.848 38.7639 10.752 39.1373 10.56C39.5106 10.3573 39.8039 10.08 40.0173 9.728C40.2306 9.36533 40.3373 8.95467 40.3373 8.496C40.3373 7.824 40.0973 7.28 39.6173 6.864C39.1479 6.448 38.5346 6.24 37.7773 6.24C37.3933 6.24 37.0093 6.29333 36.6253 6.4C36.2519 6.496 35.8626 6.64533 35.4573 6.848L34.3853 6.528L34.6413 0.799999H41.2973V2.128H35.9533L35.7933 5.6C36.1986 5.39733 36.5933 5.25333 36.9773 5.168C37.3613 5.072 37.7666 5.024 38.1933 5.024C38.9399 5.024 39.5853 5.168 40.1293 5.456C40.6839 5.73333 41.1159 6.128 41.4253 6.64C41.7346 7.152 41.8893 7.744 41.8893 8.416C41.8893 9.16267 41.7133 9.81867 41.3612 10.384C41.0199 10.9387 40.5399 11.376 39.9213 11.696C39.3026 12.016 38.5826 12.176 37.7613 12.176ZM43.7734 12L49.1174 2.16H42.5894V0.799999H50.7814V1.968L45.5654 12H43.7734ZM55.7769 12.176C54.2835 12.176 52.9875 11.6693 51.8889 10.656L52.8329 9.6C53.3129 10.0373 53.7875 10.3573 54.2569 10.56C54.7369 10.752 55.2595 10.848 55.8249 10.848C56.3369 10.848 56.7795 10.752 57.1529 10.56C57.5262 10.3573 57.8195 10.08 58.0329 9.728C58.2462 9.36533 58.3529 8.95467 58.3529 8.496C58.3529 7.824 58.1129 7.28 57.6329 6.864C57.1635 6.448 56.5502 6.24 55.7929 6.24C55.4089 6.24 55.0249 6.29333 54.6409 6.4C54.2675 6.496 53.8782 6.64533 53.4729 6.848L52.4009 6.528L52.6569 0.799999H59.3129V2.128H53.9689L53.8089 5.6C54.2142 5.39733 54.6089 5.25333 54.9929 5.168C55.3769 5.072 55.7822 5.024 56.2089 5.024C56.9555 5.024 57.6009 5.168 58.1449 5.456C58.6995 5.73333 59.1315 6.128 59.4409 6.64C59.7502 7.152 59.9049 7.744 59.9049 8.416C59.9049 9.16267 59.7289 9.81867 59.3769 10.384C59.0355 10.9387 58.5555 11.376 57.9369 11.696C57.3182 12.016 56.5982 12.176 55.7769 12.176ZM68.8491 12.176C68.0491 12.176 67.3398 12.0373 66.7211 11.76C66.1131 11.4827 65.6331 11.0987 65.2811 10.608C64.9291 10.1173 64.7531 9.55733 64.7531 8.928C64.7531 8.49067 64.8545 8.08533 65.0571 7.712C65.2705 7.33867 65.5638 7.01333 65.9371 6.736C66.3211 6.45867 66.7531 6.26133 67.2331 6.144C66.6145 5.952 66.1131 5.62667 65.7291 5.168C65.3451 4.70933 65.1531 4.19733 65.1531 3.632C65.1531 3.056 65.3131 2.544 65.6331 2.096C65.9638 1.63733 66.4065 1.28 66.9611 1.024C67.5158 0.757333 68.1451 0.624 68.8491 0.624C69.5531 0.624 70.1825 0.757333 70.7371 1.024C71.3025 1.28 71.7451 1.63733 72.0651 2.096C72.3851 2.544 72.5451 3.056 72.5451 3.632C72.5451 4.19733 72.3531 4.70933 71.9691 5.168C71.5851 5.62667 71.0838 5.952 70.4651 6.144C71.2011 6.336 71.7985 6.688 72.2571 7.2C72.7158 7.70133 72.9451 8.27733 72.9451 8.928C72.9451 9.55733 72.7691 10.1173 72.4171 10.608C72.0758 11.0987 71.5958 11.4827 70.9771 11.76C70.3585 12.0373 69.6491 12.176 68.8491 12.176ZM68.8491 5.552C69.2651 5.552 69.6385 5.472 69.9691 5.312C70.2998 5.152 70.5611 4.93333 70.7531 4.656C70.9451 4.37867 71.0411 4.06933 71.0411 3.728C71.0411 3.376 70.9451 3.06133 70.7531 2.784C70.5611 2.496 70.2998 2.27733 69.9691 2.128C69.6385 1.968 69.2651 1.888 68.8491 1.888C68.4331 1.888 68.0598 1.968 67.7291 2.128C67.3985 2.27733 67.1371 2.49067 66.9451 2.768C66.7531 3.04533 66.6571 3.36 66.6571 3.712C66.6571 4.064 66.7531 4.37867 66.9451 4.656C67.1371 4.93333 67.3985 5.152 67.7291 5.312C68.0598 5.472 68.4331 5.552 68.8491 5.552ZM68.8491 10.912C69.3398 10.912 69.7771 10.8267 70.1611 10.656C70.5451 10.4747 70.8491 10.2293 71.0731 9.92C71.2971 9.6 71.4091 9.24267 71.4091 8.848C71.4091 8.45333 71.2971 8.10133 71.0731 7.792C70.8491 7.472 70.5451 7.22667 70.1611 7.056C69.7771 6.87467 69.3398 6.784 68.8491 6.784C68.3585 6.784 67.9211 6.87467 67.5371 7.056C67.1531 7.23733 66.8491 7.48267 66.6251 7.792C66.4011 8.10133 66.2891 8.45333 66.2891 8.848C66.2891 9.24267 66.4011 9.6 66.6251 9.92C66.8491 10.2293 67.1531 10.4747 67.5371 10.656C67.9211 10.8267 68.3585 10.912 68.8491 10.912ZM78.23 12.176C76.7367 12.176 75.4407 11.6693 74.342 10.656L75.286 9.6C75.766 10.0373 76.2407 10.3573 76.71 10.56C77.19 10.752 77.7127 10.848 78.278 10.848C78.79 10.848 79.2327 10.752 79.606 10.56C79.9793 10.3573 80.2727 10.08 80.486 9.728C80.6993 9.36533 80.806 8.95467 80.806 8.496C80.806 7.824 80.566 7.28 80.086 6.864C79.6167 6.448 79.0033 6.24 78.246 6.24C77.862 6.24 77.478 6.29333 77.094 6.4C76.7207 6.496 76.3313 6.64533 75.926 6.848L74.854 6.528L75.11 0.799999H81.766V2.128H76.422L76.262 5.6C76.6673 5.39733 77.062 5.25333 77.446 5.168C77.83 5.072 78.2353 5.024 78.662 5.024C79.4087 5.024 80.054 5.168 80.598 5.456C81.1527 5.73333 81.5847 6.128 81.894 6.64C82.2033 7.152 82.358 7.744 82.358 8.416C82.358 9.16267 82.182 9.81867 81.83 10.384C81.4887 10.9387 81.0087 11.376 80.39 11.696C79.7713 12.016 79.0513 12.176 78.23 12.176ZM89.8465 12V9.152H83.4945V7.888L89.6545 0.799999H91.4305V7.808H92.7905V9.152H91.4305V12H89.8465ZM85.3825 7.808H89.8465V2.672L85.3825 7.808ZM95.416 12V2.448L93.4 3.296V1.888L95.992 0.799999H97V12H95.416ZM98.8153 12V10.88L103.359 6.048C103.669 5.728 103.909 5.44 104.079 5.184C104.25 4.928 104.367 4.688 104.431 4.464C104.506 4.22933 104.543 3.984 104.543 3.728C104.543 3.22667 104.341 2.81067 103.935 2.48C103.53 2.14933 103.018 1.984 102.399 1.984C101.887 1.984 101.407 2.08533 100.959 2.288C100.511 2.49067 100.015 2.84267 99.4713 3.344L98.6073 2.288C99.2046 1.73333 99.8179 1.31733 100.447 1.04C101.087 0.762666 101.749 0.624 102.431 0.624C103.146 0.624 103.775 0.752 104.319 1.008C104.863 1.264 105.285 1.62133 105.583 2.08C105.893 2.528 106.047 3.04533 106.047 3.632C106.047 4.00533 105.999 4.352 105.903 4.672C105.807 4.98133 105.642 5.312 105.407 5.664C105.173 6.00533 104.842 6.4 104.415 6.848L100.767 10.688L106.271 10.672V12H98.8153Z" fill="white"/>
</svg>
