<svg width="201" height="60" viewBox="0 0 201 60" fill="none" xmlns="http://www.w3.org/2000/svg">
<path d="M192.7 59.4387H7.41155C3.33524 59.4387 0 56.0981 0 52.0152V7.47409C0 3.39112 3.33518 0.0505371 7.41155 0.0505371H192.7C196.776 0.0505371 200.111 3.39112 200.111 7.47409V52.0152C200.111 56.0981 196.776 59.4387 192.7 59.4387" fill="black"/>
<path d="M41.3521 29.8542C41.3701 28.4585 41.7409 27.0899 42.4299 25.8759C43.1189 24.662 44.1038 23.642 45.2929 22.9109C44.5374 21.832 43.5409 20.9442 42.3823 20.3178C41.2237 19.6914 39.935 19.3439 38.6186 19.3026C35.8104 19.0078 33.0881 20.9829 31.6569 20.9829C30.1984 20.9829 27.9952 19.3319 25.6227 19.3807C24.0881 19.4303 22.5925 19.8765 21.2816 20.6759C19.9707 21.4754 18.8893 22.6007 18.1426 23.9424C14.9084 29.542 17.3209 37.7713 20.4191 42.2975C21.9691 44.5139 23.7805 46.9895 26.151 46.9017C28.4704 46.8056 29.3367 45.4226 32.1367 45.4226C34.9107 45.4226 35.7234 46.9017 38.1419 46.8459C40.6309 46.8056 42.199 44.6197 43.6947 42.3824C44.8084 40.8032 45.6653 39.0578 46.2339 37.2109C44.7878 36.5993 43.5538 35.5755 42.6857 34.2673C41.8176 32.9591 41.3538 31.4243 41.3521 29.8542ZM36.7842 16.3258C38.1412 14.6967 38.8098 12.6027 38.6479 10.4886C36.5746 10.7063 34.6594 11.6972 33.2839 13.2639C32.6114 14.0292 32.0964 14.9196 31.7682 15.8841C31.44 16.8487 31.3052 17.8684 31.3713 18.8851C32.4084 18.8958 33.4343 18.671 34.3719 18.2277C35.3095 17.7844 36.1343 17.1341 36.7842 16.3258ZM70.6729 41.2909H62.7573L60.8564 46.9037H57.5035L65.0012 26.1374H68.4845L75.982 46.9037H72.5721L70.6729 41.2909ZM63.577 38.7007H69.8514L66.7584 29.5915H66.6718L63.577 38.7007ZM92.174 39.3345C92.174 44.0393 89.6557 47.0621 85.8556 47.0621C84.893 47.1125 83.9355 46.8907 83.093 46.4223C82.2505 45.9538 81.557 45.2575 81.0918 44.4132H81.0199V51.9124H77.9121V31.7634H80.9204V34.2817H80.9776C81.4641 33.4415 82.1694 32.7488 83.0183 32.2775C83.8672 31.8062 84.828 31.5738 85.7984 31.6051C89.641 31.6051 92.174 34.6426 92.174 39.3343V39.3345ZM88.9796 39.3345C88.9796 36.2692 87.3956 34.254 84.9787 34.254C82.604 34.254 81.007 36.3115 81.007 39.3343C81.007 42.3851 82.604 44.4281 84.9787 44.4281C87.3956 44.4281 88.9796 42.4276 88.9796 39.3343V39.3345ZM108.838 39.3345C108.838 44.0393 106.32 47.0621 102.52 47.0621C101.557 47.1125 100.6 46.8907 99.757 46.4222C98.9146 45.9538 98.221 45.2575 97.7559 44.4132H97.684V51.9124H94.5762V31.7634H97.5843V34.2817H97.6415C98.1281 33.4415 98.8333 32.7488 99.6822 32.2775C100.531 31.8062 101.492 31.5738 102.462 31.6051C106.305 31.6051 108.838 34.6426 108.838 39.3343V39.3345ZM105.644 39.3345C105.644 36.2692 104.06 34.254 101.643 34.254C99.268 34.254 97.6709 36.3115 97.6709 39.3343C97.6709 42.3851 99.268 44.4281 101.643 44.4281C104.06 44.4281 105.644 42.4276 105.644 39.3343V39.3345ZM119.852 41.1178C120.082 43.1771 122.082 44.5293 124.816 44.5293C127.435 44.5293 129.32 43.1771 129.32 41.3202C129.32 39.7083 128.183 38.7432 125.492 38.0818L122.801 37.4335C118.988 36.5124 117.217 34.7291 117.217 31.8352C117.217 28.2522 120.34 25.7912 124.774 25.7912C129.162 25.7912 132.17 28.2522 132.271 31.8352H129.134C128.946 29.7629 127.233 28.5119 124.729 28.5119C122.226 28.5119 120.513 29.7776 120.513 31.6196C120.513 33.0879 121.607 33.9518 124.284 34.613L126.572 35.1749C130.832 36.1824 132.603 37.894 132.603 40.9314C132.603 44.8166 129.508 47.2499 124.586 47.2499C119.98 47.2499 116.871 44.8736 116.67 41.1177L119.852 41.1178ZM139.31 28.1806V31.7634H142.189V34.2245H139.31V42.5712C139.31 43.8679 139.886 44.4721 141.152 44.4721C141.494 44.4661 141.835 44.4421 142.174 44.4002V46.8467C141.605 46.953 141.027 47.001 140.448 46.9902C137.383 46.9902 136.187 45.839 136.187 42.9027V34.2245H133.986V31.7634H136.187V28.1806H139.31ZM143.856 39.3345C143.856 34.5707 146.662 31.5773 151.037 31.5773C155.427 31.5773 158.219 34.5707 158.219 39.3345C158.219 44.1112 155.441 47.0915 151.037 47.0915C146.634 47.0915 143.856 44.1112 143.856 39.3345ZM155.053 39.3345C155.053 36.0667 153.555 34.1379 151.037 34.1379C148.519 34.1379 147.023 36.0813 147.023 39.3345C147.023 42.6154 148.519 44.5293 151.037 44.5293C153.555 44.5293 155.053 42.6154 155.053 39.3345ZM160.781 31.7634H163.745V34.3404H163.817C164.018 33.5356 164.489 32.8243 165.153 32.3262C165.816 31.828 166.63 31.5734 167.459 31.6051C167.817 31.6038 168.175 31.6427 168.524 31.721V34.6279C168.072 34.4897 167.6 34.4263 167.128 34.4401C166.676 34.4218 166.226 34.5014 165.808 34.6734C165.39 34.8455 165.015 35.1059 164.707 35.4368C164.4 35.7678 164.167 36.1614 164.026 36.5906C163.885 37.0198 163.838 37.4745 163.889 37.9234V46.9037H160.781V31.7634ZM182.853 42.4568C182.434 45.2054 179.758 47.0915 176.333 47.0915C171.929 47.0915 169.195 44.1406 169.195 39.4063C169.195 34.6573 171.944 31.5773 176.203 31.5773C180.392 31.5773 183.026 34.4548 183.026 39.0454V40.1101H172.332V40.2979C172.283 40.8551 172.353 41.4164 172.537 41.9446C172.721 42.4728 173.016 42.9557 173.401 43.3613C173.786 43.767 174.253 44.086 174.771 44.2972C175.289 44.5084 175.846 44.607 176.405 44.5865C177.14 44.6553 177.877 44.4852 178.507 44.1015C179.137 43.7178 179.626 43.141 179.902 42.4568H182.853ZM172.347 37.9382H179.916C179.944 37.4371 179.868 36.9358 179.693 36.4655C179.518 35.9952 179.248 35.5662 178.899 35.2054C178.55 34.8446 178.131 34.5597 177.667 34.3687C177.203 34.1777 176.704 34.0847 176.203 34.0954C175.696 34.0924 175.195 34.1897 174.727 34.3816C174.258 34.5735 173.833 34.8562 173.474 35.2135C173.116 35.5707 172.832 35.9954 172.638 36.4631C172.445 36.9307 172.346 37.4321 172.347 37.9382ZM63.1876 10.5065C63.8391 10.4597 64.4929 10.5581 65.1018 10.7946C65.7107 11.0312 66.2596 11.3999 66.7087 11.8742C67.1579 12.3485 67.4961 12.9166 67.6992 13.5375C67.9022 14.1584 67.9648 14.8166 67.8827 15.4646C67.8827 18.6523 66.1597 20.4848 63.1876 20.4848H59.5833V10.5063L63.1876 10.5065ZM61.1332 19.0735H63.0145C63.48 19.1013 63.9459 19.025 64.3783 18.85C64.8106 18.6751 65.1985 18.4059 65.5137 18.0622C65.8289 17.7184 66.0635 17.3087 66.2004 16.8629C66.3373 16.417 66.373 15.9462 66.305 15.4848C66.3681 15.0252 66.3287 14.5574 66.1897 14.1148C66.0507 13.6722 65.8156 13.2659 65.5011 12.9248C65.1866 12.5838 64.8006 12.3166 64.3707 12.1422C63.9408 11.9679 63.4777 11.8908 63.0145 11.9165H61.1332V19.0735ZM69.6334 16.7163C69.586 16.2214 69.6426 15.7222 69.7995 15.2505C69.9564 14.7787 70.2102 14.3451 70.5446 13.9772C70.8789 13.6093 71.2865 13.3154 71.7411 13.1142C72.1957 12.9131 72.6873 12.8092 73.1844 12.8092C73.6816 12.8092 74.1732 12.9131 74.6278 13.1142C75.0824 13.3154 75.49 13.6093 75.8243 13.9772C76.1587 14.3451 76.4124 14.7787 76.5694 15.2505C76.7263 15.7222 76.7829 16.2214 76.7355 16.7163C76.7839 17.2117 76.7281 17.7118 76.5716 18.1844C76.4152 18.657 76.1616 19.0916 75.8271 19.4603C75.4927 19.829 75.0848 20.1236 74.6297 20.3252C74.1745 20.5269 73.6822 20.631 73.1844 20.631C72.6866 20.631 72.1944 20.5269 71.7392 20.3252C71.2841 20.1236 70.8762 19.829 70.5418 19.4603C70.2073 19.0916 69.9537 18.657 69.7973 18.1844C69.6408 17.7118 69.585 17.2117 69.6334 16.7163ZM75.2071 16.7163C75.2071 15.084 74.4738 14.1295 73.187 14.1295C71.8951 14.1295 71.1685 15.084 71.1685 16.7163C71.1685 18.3617 71.8953 19.3088 73.187 19.3088C74.4738 19.3088 75.2071 18.3551 75.2071 16.7163ZM86.1765 20.4846H84.6347L83.0785 14.9387H82.9609L81.4112 20.4846H79.8843L77.8086 12.9543H79.3158L80.6649 18.7003H80.7759L82.3241 12.9543H83.7497L85.2979 18.7003H85.4155L86.7578 12.9543H88.244L86.1765 20.4846ZM89.9897 12.9545H91.4203V14.1507H91.5313C91.7197 13.721 92.0375 13.3608 92.4403 13.1203C92.8431 12.8798 93.3109 12.771 93.7785 12.809C94.1449 12.7815 94.5128 12.8367 94.855 12.9707C95.1971 13.1046 95.5047 13.3138 95.755 13.5828C96.0053 13.8518 96.1919 14.1736 96.301 14.5245C96.41 14.8754 96.4387 15.2463 96.3849 15.6098V20.4844H94.8988V15.983C94.8988 14.7729 94.3729 14.1711 93.2738 14.1711C93.0251 14.1595 92.7768 14.2019 92.5459 14.2952C92.315 14.3886 92.1071 14.5308 91.9363 14.712C91.7655 14.8933 91.636 15.1093 91.5565 15.3453C91.477 15.5813 91.4495 15.8317 91.4758 16.0793V20.4846H89.9897V12.9545ZM98.7529 10.0148H100.239V20.4846H98.7529V10.0148ZM102.305 16.7163C102.257 16.2214 102.314 15.722 102.471 15.2503C102.628 14.7785 102.882 14.3447 103.216 13.9768C103.551 13.6089 103.958 13.3149 104.413 13.1137C104.868 12.9126 105.359 12.8087 105.856 12.8087C106.354 12.8087 106.845 12.9126 107.3 13.1137C107.755 13.3149 108.162 13.6089 108.497 13.9768C108.831 14.3447 109.085 14.7785 109.242 15.2503C109.399 15.722 109.455 16.2214 109.408 16.7163C109.456 17.2117 109.4 17.7116 109.243 18.184C109.087 18.6564 108.833 19.0909 108.499 19.4594C108.164 19.828 107.756 20.1225 107.301 20.324C106.846 20.5255 106.354 20.6297 105.856 20.6297C105.359 20.6297 104.867 20.5255 104.411 20.324C103.956 20.1225 103.549 19.828 103.214 19.4594C102.88 19.0909 102.626 18.6564 102.469 18.184C102.313 17.7116 102.257 17.2117 102.305 16.7163ZM107.879 16.7163C107.879 15.084 107.145 14.1295 105.858 14.1295C104.567 14.1295 103.84 15.084 103.84 16.7163C103.84 18.3617 104.567 19.3088 105.858 19.3088C107.145 19.3088 107.879 18.3551 107.879 16.7163ZM110.972 18.3551C110.972 16.9996 111.982 16.2181 113.773 16.1071L115.813 15.9895V15.3395C115.813 14.5442 115.287 14.0952 114.271 14.0952C113.442 14.0952 112.867 14.3997 112.702 14.9321H111.263C111.415 13.6386 112.632 12.8092 114.34 12.8092C116.228 12.8092 117.292 13.749 117.292 15.3395V20.4846H115.862V19.4264H115.744C115.506 19.806 115.17 20.1154 114.773 20.3231C114.376 20.5309 113.93 20.6294 113.482 20.6087C113.166 20.6416 112.847 20.6078 112.545 20.5097C112.242 20.4115 111.964 20.2511 111.727 20.0388C111.491 19.8265 111.302 19.5669 111.172 19.277C111.042 18.987 110.974 18.6729 110.972 18.3551ZM115.813 17.7116V17.082L113.974 17.1996C112.937 17.269 112.467 17.6218 112.467 18.2856C112.467 18.9633 113.055 19.3578 113.863 19.3578C114.1 19.3818 114.339 19.3579 114.567 19.2875C114.794 19.2171 115.005 19.1017 115.187 18.9481C115.369 18.7945 115.518 18.6059 115.625 18.3935C115.733 18.1811 115.797 17.9492 115.813 17.7116ZM119.246 16.7163C119.246 14.3368 120.469 12.8296 122.371 12.8296C122.842 12.8079 123.309 12.9206 123.718 13.1545C124.127 13.3885 124.461 13.734 124.681 14.1507H124.792V10.0146H126.278V20.4844H124.854V19.2946H124.736C124.499 19.7085 124.154 20.0497 123.737 20.2813C123.32 20.5129 122.848 20.6261 122.371 20.6085C120.456 20.6085 119.246 19.1011 119.246 16.7161V16.7163ZM120.781 16.7163C120.781 18.3133 121.534 19.2745 122.793 19.2745C124.045 19.2745 124.819 18.2996 124.819 16.7227C124.819 15.1534 124.037 14.1646 122.793 14.1646C121.542 14.1646 120.781 15.1322 120.781 16.7163ZM132.426 16.7163C132.379 16.2214 132.435 15.7222 132.592 15.2505C132.749 14.7787 133.003 14.3451 133.337 13.9772C133.672 13.6093 134.079 13.3154 134.534 13.1142C134.989 12.9131 135.48 12.8092 135.977 12.8092C136.474 12.8092 136.966 12.9131 137.421 13.1142C137.875 13.3154 138.283 13.6093 138.617 13.9772C138.952 14.3451 139.205 14.7787 139.362 15.2505C139.519 15.7222 139.576 16.2214 139.528 16.7163C139.577 17.2117 139.521 17.7118 139.364 18.1844C139.208 18.657 138.954 19.0916 138.62 19.4603C138.286 19.829 137.878 20.1236 137.422 20.3252C136.967 20.5269 136.475 20.631 135.977 20.631C135.479 20.631 134.987 20.5269 134.532 20.3252C134.077 20.1236 133.669 19.829 133.335 19.4603C133 19.0916 132.747 18.657 132.59 18.1844C132.434 17.7118 132.378 17.2117 132.426 16.7163ZM138 16.7163C138 15.084 137.267 14.1295 135.98 14.1295C134.688 14.1295 133.961 15.084 133.961 16.7163C133.961 18.3617 134.688 19.3088 135.98 19.3088C137.267 19.3088 138 18.3551 138 16.7163ZM141.522 12.9545H142.953V14.1507H143.064C143.252 13.721 143.57 13.3608 143.973 13.1203C144.376 12.8798 144.844 12.771 145.311 12.809C145.678 12.7815 146.046 12.8367 146.388 12.9707C146.73 13.1046 147.037 13.3138 147.288 13.5828C147.538 13.8518 147.725 14.1736 147.834 14.5245C147.943 14.8754 147.971 15.2463 147.918 15.6098V20.4844H146.432V15.983C146.432 14.7729 145.906 14.1711 144.807 14.1711C144.558 14.1595 144.31 14.2019 144.079 14.2952C143.848 14.3886 143.64 14.5308 143.469 14.712C143.298 14.8933 143.169 15.1093 143.089 15.3453C143.01 15.5813 142.982 15.8317 143.009 16.0793V20.4846H141.523L141.522 12.9545ZM156.315 11.0797V12.9888H157.946V14.2405H156.315V18.1125C156.315 18.9013 156.64 19.2468 157.38 19.2468C157.569 19.2461 157.758 19.2346 157.946 19.2123V20.4503C157.679 20.4981 157.409 20.5235 157.138 20.5262C155.485 20.5262 154.827 19.9448 154.827 18.4931V14.2405H153.632V12.9886H154.827V11.0799L156.315 11.0797ZM159.976 10.0148H161.449V14.1646H161.567C161.765 13.7309 162.091 13.3687 162.502 13.1273C162.913 12.8859 163.388 12.777 163.863 12.8155C164.228 12.7957 164.592 12.8566 164.93 12.9938C165.268 13.131 165.572 13.3411 165.82 13.6093C166.068 13.8774 166.253 14.1969 166.363 14.545C166.473 14.8931 166.505 15.2612 166.456 15.623V20.4846H164.969V15.9895C164.969 14.7867 164.408 14.1776 163.358 14.1776C163.103 14.1567 162.846 14.1918 162.606 14.2805C162.365 14.3693 162.147 14.5094 161.967 14.6913C161.786 14.8731 161.647 15.0922 161.56 15.3332C161.473 15.5743 161.44 15.8314 161.462 16.0867V20.4846H159.976V10.0148ZM175.122 18.4513C174.92 19.1395 174.482 19.7349 173.886 20.1331C173.289 20.5314 172.572 20.7073 171.859 20.6299C171.363 20.643 170.87 20.548 170.414 20.3515C169.958 20.1549 169.551 19.8616 169.22 19.4918C168.889 19.122 168.642 18.6846 168.497 18.21C168.352 17.7353 168.312 17.2348 168.38 16.7432C168.314 16.2501 168.355 15.7485 168.499 15.2724C168.644 14.7963 168.889 14.3569 169.218 13.9838C169.548 13.6108 169.953 13.3128 170.408 13.1101C170.862 12.9074 171.355 12.8048 171.852 12.809C173.947 12.809 175.211 14.2405 175.211 16.6051V17.1237H169.894V17.2069C169.871 17.4833 169.906 17.7614 169.996 18.0236C170.087 18.2857 170.231 18.526 170.42 18.7291C170.608 18.9322 170.838 19.0936 171.092 19.203C171.347 19.3124 171.622 19.3673 171.899 19.3642C172.255 19.4069 172.615 19.3429 172.934 19.1803C173.253 19.0177 173.517 18.764 173.691 18.4513H175.122ZM169.894 16.0246H173.697C173.716 15.7719 173.682 15.5181 173.597 15.2794C173.511 15.0407 173.377 14.8226 173.203 14.6388C173.028 14.4551 172.817 14.31 172.583 14.2127C172.349 14.1154 172.097 14.0681 171.844 14.0739C171.587 14.0707 171.332 14.1189 171.094 14.2158C170.856 14.3127 170.639 14.4563 170.458 14.6381C170.276 14.8199 170.132 15.0363 170.036 15.2744C169.939 15.5125 169.891 15.7676 169.894 16.0246Z" fill="white"/>
<path d="M192.7 0.0505371H7.41155C3.33524 0.0505371 0 3.39112 0 7.47409V52.0152C0 56.0981 3.33518 59.4387 7.41155 59.4387H192.7C196.776 59.4387 200.111 56.0981 200.111 52.0152V7.47409C200.112 3.39112 196.776 0.0505371 192.7 0.0505371M192.7 1.23826C196.133 1.23826 198.926 4.03609 198.926 7.47409V52.0152C198.926 55.4538 196.133 58.2516 192.7 58.2516H7.41155C3.97915 58.2516 1.18586 55.4538 1.18586 52.0152V7.47409C1.18586 4.03609 3.97908 1.23833 7.41155 1.23833H192.7" fill="#A6A6A6"/>
</svg>
