<svg width="201" height="61" viewBox="0 0 201 61" fill="none" xmlns="http://www.w3.org/2000/svg">
<path d="M193.589 60.2756H8.3001C4.22379 60.2756 0.88855 56.9351 0.88855 52.8521V8.31101C0.88855 4.22803 4.22373 0.887451 8.3001 0.887451H193.588C197.665 0.887451 201 4.22803 201 8.31101V52.8521C201 56.9351 197.665 60.2756 193.588 60.2756" fill="black"/>
<path d="M193.589 0.887451H8.3001C4.22379 0.887451 0.88855 4.22803 0.88855 8.31101V52.8521C0.88855 56.9351 4.22373 60.2756 8.3001 60.2756H193.588C197.665 60.2756 201 56.9351 201 52.8521V8.31101C201 4.22803 197.665 0.887451 193.588 0.887451M193.588 2.07518C197.022 2.07518 199.814 4.87301 199.814 8.31101V52.8521C199.814 56.2907 197.021 59.0885 193.588 59.0885H8.3001C4.8677 59.0885 2.07441 56.2907 2.07441 52.8521V8.31101C2.07441 4.87301 4.86763 2.07524 8.3001 2.07524H193.588" fill="#A6A6A6"/>
<path d="M71.1772 16.0959C71.1772 17.3398 70.8094 18.3303 70.0728 19.0693C69.2362 19.9479 68.1458 20.3876 66.8053 20.3876C65.5217 20.3876 64.4302 19.9422 63.5327 19.0501C62.6335 18.1587 62.1848 17.0533 62.1848 15.7345C62.1848 14.4151 62.6335 13.3103 63.5327 12.4182C64.4302 11.5269 65.5217 11.0808 66.8053 11.0808C67.4423 11.0808 68.0521 11.2056 68.6311 11.4544C69.2101 11.7038 69.6745 12.0349 70.0219 12.4496L69.2402 13.2331C68.6514 12.5284 67.8407 12.1764 66.8053 12.1764C65.8692 12.1764 65.0596 12.5059 64.3764 13.1653C63.6931 13.8253 63.3515 14.6813 63.3515 15.7345C63.3515 16.7878 63.6931 17.6437 64.3764 18.3038C65.0596 18.9632 65.8691 19.2926 66.8053 19.2926C67.7985 19.2926 68.6265 18.9614 69.2894 18.298C69.7197 17.8658 69.9686 17.2651 70.0352 16.4936H66.8053V15.4236H71.1151C71.1567 15.6563 71.177 15.8796 71.177 16.0959" fill="white"/>
<path d="M71.1772 16.0959H71.029C71.0278 17.3115 70.6733 18.2556 69.968 18.9643L69.9665 18.9655L69.9658 18.9667C69.1558 19.8151 68.1145 20.2373 66.8053 20.2391C65.5559 20.2373 64.5101 19.8105 63.6369 18.9452C62.7656 18.0781 62.3347 17.0197 62.3331 15.7345C62.3347 14.4488 62.7656 13.3909 63.6369 12.5245C64.5101 11.6586 65.5559 11.2311 66.8053 11.2293C67.4232 11.2293 68.0115 11.3501 68.5726 11.5907C69.1342 11.8332 69.5779 12.1509 69.9084 12.5454L70.0219 12.4496L69.9172 12.3446L69.1354 13.1287L69.2402 13.2331L69.3543 13.1381C68.7381 12.3985 67.8732 12.0257 66.8054 12.028C65.8345 12.0268 64.9804 12.3743 64.2739 13.0587C63.5606 13.7453 63.2022 14.6494 63.2034 15.7345C63.2022 16.8197 63.5606 17.7238 64.2739 18.4104C64.9804 19.0949 65.8345 19.4423 66.8053 19.4411C67.8314 19.4429 68.7058 19.0943 69.3942 18.403C69.854 17.9412 70.1146 17.3017 70.1829 16.5064L70.1968 16.3452H66.9536V15.5721H71.1152V15.4236L70.9692 15.4497C71.0097 15.6749 71.0289 15.8888 71.0289 16.0959H71.3254C71.3254 15.8702 71.3045 15.6383 71.261 15.3971L71.2391 15.2752H66.6572V16.6421H70.0352V16.4937L69.8876 16.4809C69.8222 17.228 69.5847 17.7906 69.1847 18.1931C68.5478 18.8287 67.7661 19.1424 66.8054 19.1442C65.9039 19.143 65.139 18.8321 64.4795 18.1971C63.8264 17.5643 63.5015 16.7564 63.4998 15.7345C63.5015 14.7126 63.8264 13.9048 64.4795 13.272C65.139 12.637 65.9039 12.3261 66.8054 12.3249C67.8078 12.3273 68.5646 12.659 69.1269 13.3288L69.2311 13.453L70.1268 12.5546L70.2229 12.4584L70.1354 12.3544C69.7712 11.9196 69.286 11.5744 68.6896 11.3182C68.0921 11.0612 67.4615 10.9324 66.8054 10.9324C65.4876 10.9312 64.3504 11.3952 63.428 12.3133C62.5022 13.2297 62.0355 14.3815 62.0367 15.7345C62.0355 17.0869 62.5022 18.2394 63.4286 19.1563C64.3504 20.0739 65.4876 20.5373 66.8054 20.5361C68.1778 20.5373 69.3162 20.0807 70.1801 19.1719L70.0728 19.0693L70.1777 19.1743C70.9455 18.4058 71.3264 17.3677 71.3254 16.0959H71.1772M78.0096 12.3748H73.9593V15.1993H77.6119V16.2697H73.9593V19.0943H78.0096V20.1886H72.8175V11.2804H78.0096V12.3748Z" fill="white"/>
<path d="M78.0096 12.3747V12.2262H73.8111V15.3477H77.4637V16.1208L73.8111 16.1212V19.2426H77.8613V20.04H72.9658V11.4288H77.8613V12.3747H78.0096V12.2262V12.3747H78.1578V11.1318H72.6693V20.337H78.1578V18.9457H74.1075V16.4181H77.7601V15.0507H74.1075V12.5231H78.1578V12.3747H78.0096ZM82.8288 20.1886H81.6853V12.3746H79.2012V11.2802H85.3129V12.3746H82.8288V20.1884" fill="white"/>
<path d="M82.8289 20.1886V20.04H81.8336V12.2262H79.3496V11.4288H85.1648V12.2262H82.6807V20.1885H82.8289V20.04V20.1885H82.9772V12.5231H85.4612V11.1318H79.0531V12.5231H81.5371V20.3369H82.9772V20.1884H82.8289M89.735 20.1886V11.2802H90.8775V20.1884H89.735" fill="white"/>
<path d="M89.735 20.1886H89.8833V11.4288H90.7291V20.04H89.735V20.1885H89.8833H89.735V20.337H91.0256V11.1318H89.5868V20.337H89.735V20.1885M95.9467 20.1886H94.8032V12.3746H92.3192V11.2802H98.4308V12.3746H95.9467V20.1884" fill="white"/>
<path d="M95.9466 20.1887V20.0401H94.9512V12.2263H92.4674V11.4289H98.2824V12.2263H95.7984V20.1886H95.9466V20.0401V20.1886H96.0949V12.5232H98.5789V11.1319H92.1709V12.5232H94.6548V20.337H96.0949V20.1885H95.9466M104.323 18.2916C104.981 18.9591 105.787 19.2925 106.739 19.2925C107.692 19.2925 108.498 18.9591 109.155 18.2916C109.814 17.6241 110.144 16.7708 110.144 15.7345C110.144 14.6982 109.814 13.8449 109.155 13.1774C108.498 12.5099 107.692 12.1764 106.739 12.1764C105.787 12.1764 104.981 12.5099 104.323 13.1774C103.666 13.8449 103.336 14.6982 103.336 15.7345C103.336 16.7708 103.666 17.6241 104.323 18.2916ZM110 19.0374C109.126 19.938 108.038 20.3876 106.739 20.3876C105.439 20.3876 104.352 19.938 103.479 19.0374C102.604 18.1378 102.169 17.0366 102.169 15.7345C102.169 14.4324 102.604 13.331 103.479 12.4316C104.352 11.5308 105.439 11.0808 106.739 11.0808C108.032 11.0808 109.116 11.5332 109.994 12.4374C110.872 13.3416 111.311 14.4405 111.311 15.7345C111.311 17.0366 110.873 18.1378 110 19.0374Z" fill="white"/>
<path d="M104.323 18.2917L104.218 18.396C104.9 19.0903 105.752 19.4429 106.739 19.4411C107.726 19.4429 108.579 19.0903 109.26 18.396C109.948 17.7011 110.293 16.8022 110.292 15.7345C110.293 14.6669 109.948 13.7679 109.26 13.073C108.579 12.3788 107.726 12.0262 106.739 12.028C105.752 12.0262 104.9 12.3788 104.218 13.073C103.532 13.7679 103.186 14.6669 103.187 15.7345C103.186 16.8021 103.532 17.7011 104.218 18.396L104.323 18.2917L104.428 18.1873C103.8 17.5463 103.485 16.7402 103.484 15.7345C103.485 14.729 103.8 13.9228 104.428 13.2818C105.063 12.641 105.821 12.3267 106.739 12.325C107.657 12.3267 108.417 12.641 109.05 13.2818C109.68 13.9228 109.994 14.729 109.995 15.7345C109.994 16.7401 109.68 17.5463 109.05 18.1873C108.417 18.8281 107.657 19.1424 106.739 19.1441C105.821 19.1424 105.063 18.8281 104.428 18.1873L104.323 18.2917ZM110 19.0374L109.894 18.9342C109.044 19.8065 108.005 20.2374 106.739 20.2391C105.473 20.2373 104.434 19.8065 103.585 18.9342L103.581 18.9296L103.585 18.9342C102.737 18.059 102.318 17.0035 102.317 15.7345C102.318 14.4655 102.737 13.4101 103.585 12.5349C104.434 11.6626 105.473 11.2311 106.739 11.2294C107.997 11.2311 109.034 11.6644 109.889 12.5412C110.74 13.4205 111.161 14.4743 111.162 15.7345C111.161 17.0035 110.741 18.059 109.894 18.9342L110 19.0374L110.107 19.1406C111.005 18.2162 111.46 17.0696 111.459 15.7345C111.46 14.4071 111.004 13.2628 110.101 12.3343C109.198 11.4021 108.066 10.9308 106.739 10.9324C105.405 10.9308 104.27 11.3999 103.373 12.3285V12.3278C102.472 13.2528 102.02 14.3995 102.021 15.7345C102.02 17.0696 102.472 18.2162 103.373 19.1412L103.377 19.1454L103.373 19.1406C104.27 20.0691 105.405 20.5373 106.739 20.5361C108.073 20.5373 109.208 20.0691 110.107 19.1406L110 19.0374ZM112.914 20.1887V11.2804H114.305L118.628 18.2103H118.677L118.628 16.4936V11.2804H119.771V20.1886H118.579L114.056 12.9228H114.007L114.056 14.6401V20.1886H112.915" fill="white"/>
<path d="M112.915 20.1886H113.063V11.4288H114.223L118.546 18.3588H118.829L118.776 16.4914V11.4288H119.623V20.0401H118.661L114.139 12.7742H113.855L113.908 14.6424V20.0401H112.915V20.1885H113.063H112.915V20.337H114.205V14.6377L114.155 12.9187L114.007 12.9227V13.0712H114.056V12.9227L113.931 13.0016L118.496 20.337H119.92V11.1318H118.48V16.4953L118.529 18.2143L118.677 18.2103V18.0618H118.628V18.2103L118.754 18.1315L114.387 11.1318H112.766V20.337H112.915V20.1885M159.401 45.4285H162.167V26.8679H159.401L159.401 45.4285ZM184.314 33.5539L181.143 41.6008H181.048L177.757 33.5538H174.778L179.713 44.8009L176.899 51.0571H179.785L187.39 33.5538L184.314 33.5539ZM168.628 43.3204C167.721 43.3204 166.458 42.8668 166.458 41.7441C166.458 40.3115 168.032 39.7623 169.39 39.7623C170.607 39.7623 171.178 40.0249 171.917 40.3835C171.702 42.1025 170.224 43.3204 168.628 43.3204ZM168.962 33.1478C166.959 33.1478 164.885 34.0316 164.027 35.9897L166.482 37.0162C167.006 35.9897 167.983 35.655 169.009 35.655C170.439 35.655 171.894 36.5151 171.917 38.0433V38.2342C171.416 37.9476 170.344 37.5178 169.033 37.5178C166.387 37.5178 163.692 38.9741 163.692 41.6964C163.692 44.1799 165.862 45.78 168.293 45.78C170.153 45.78 171.178 44.9442 171.822 43.9653H171.917V45.3978H174.587V38.2816C174.587 34.9869 172.132 33.1478 168.962 33.1478ZM151.868 35.8133H147.933V29.4512H151.868C153.935 29.4512 155.109 31.166 155.109 32.6322C155.109 34.0705 153.935 35.8133 151.868 35.8133ZM151.796 26.8679H145.169V45.4285H147.933V38.3965H151.796C154.862 38.3965 157.875 36.1734 157.875 32.6322C157.875 29.091 154.862 26.8679 151.796 26.8679ZM115.656 43.3238C113.745 43.3238 112.146 41.7214 112.146 39.5204C112.146 37.2964 113.745 35.6695 115.656 35.6695C117.543 35.6695 119.023 37.2963 119.023 39.5204C119.023 41.7214 117.543 43.3238 115.656 43.3238H115.656ZM118.832 34.5932H118.737C118.116 33.8518 116.921 33.1821 115.417 33.1821C112.265 33.1821 109.376 35.9566 109.376 39.5204C109.376 43.0606 112.265 45.8113 115.417 45.8113C116.921 45.8113 118.116 45.1414 118.737 44.3764H118.832V45.2852C118.832 47.7015 117.543 48.993 115.465 48.993C113.77 48.993 112.719 47.7727 112.289 46.7444L109.877 47.749C110.57 49.4233 112.408 51.4805 115.465 51.4805C118.713 51.4805 121.459 49.5665 121.459 44.9025V33.5649H118.832V34.5932ZM123.369 45.4285H126.14V26.8673H123.369V45.4285ZM130.223 39.3053C130.152 36.8653 132.11 35.6219 133.519 35.6219C134.618 35.6219 135.549 36.1717 135.859 36.9617L130.223 39.3053ZM138.82 37.2006C138.295 35.7889 136.695 33.1821 133.423 33.1821C130.175 33.1821 127.477 35.7414 127.477 39.4967C127.477 43.0368 130.152 45.8113 133.733 45.8113C136.623 45.8113 138.295 44.0412 138.988 43.0129L136.838 41.5775C136.122 42.6301 135.143 43.3238 133.733 43.3238C132.325 43.3238 131.322 42.6778 130.677 41.4105L139.106 37.918L138.82 37.2006ZM71.6596 35.1196V37.7985H78.0594C77.8684 39.3053 77.3669 40.4055 76.6026 41.171C75.6715 42.1041 74.2148 43.1325 71.6595 43.1325C67.7191 43.1325 64.6388 39.9513 64.6388 36.0046C64.6388 32.058 67.7191 28.8765 71.6596 28.8765C73.7851 28.8765 75.3368 29.7138 76.4833 30.7902L78.3698 28.9008C76.77 27.3696 74.6444 26.1976 71.6596 26.1976C66.2623 26.1976 61.7251 30.5989 61.7251 36.0046C61.7251 41.4104 66.2623 45.8113 71.6596 45.8113C74.5732 45.8113 76.77 44.855 78.4891 43.0606C80.2564 41.2905 80.8059 38.8031 80.8059 36.7941C80.8059 36.1717 80.7583 35.5981 80.6622 35.1196H71.6596ZM88.0819 43.3238C86.171 43.3238 84.5232 41.7451 84.5232 39.4967C84.5232 37.2243 86.171 35.6695 88.0819 35.6695C89.992 35.6695 91.6399 37.2243 91.6399 39.4967C91.6399 41.7451 89.992 43.3238 88.0819 43.3238ZM88.0819 33.1821C84.5949 33.1821 81.753 35.837 81.753 39.4967C81.753 43.1325 84.5949 45.8113 88.0819 45.8113C91.5681 45.8113 94.41 43.1325 94.41 39.4967C94.41 35.837 91.5681 33.1821 88.0819 33.1821ZM101.887 43.3238C99.9768 43.3238 98.3288 41.7451 98.3288 39.4967C98.3288 37.2243 99.9768 35.6695 101.887 35.6695C103.797 35.6695 105.445 37.2243 105.445 39.4967C105.445 41.7451 103.797 43.3238 101.887 43.3238H101.887ZM101.887 33.1821C98.4001 33.1821 95.5588 35.837 95.5588 39.4967C95.5588 43.1325 98.4001 45.8113 101.887 45.8113C105.373 45.8113 108.215 43.1325 108.215 39.4967C108.215 35.837 105.373 33.1821 101.887 33.1821H101.887Z" fill="white"/>
<path d="M16.4654 12.188C15.968 12.6376 15.671 13.3874 15.671 14.3826V14.1576V47.0009V46.7846C15.671 47.7038 15.9257 48.4136 16.357 48.8707L16.4671 48.9763V48.9768C16.8162 49.2923 17.2639 49.4599 17.777 49.4593C18.2783 49.4593 18.8423 49.2993 19.4376 48.9612L40.9536 36.7164L48.3442 32.5099C49.2828 31.9759 49.8097 31.2869 49.8978 30.585V30.5822C49.8097 29.8787 49.2828 29.1903 48.3442 28.6561L40.953 24.4502L19.4376 12.2054C18.8411 11.8667 18.2767 11.7061 17.774 11.7061C17.2616 11.7061 16.8145 11.8731 16.4655 12.188H16.4654Z" fill="#00C1FF"/>
<path d="M16.4672 48.9761L16.357 48.8705C15.9257 48.4134 15.671 47.7035 15.671 46.7844V47.0007V14.1655V14.3824C15.671 13.3871 15.968 12.6373 16.4654 12.1878L34.8309 30.5825L16.4672 48.9761Z" fill="url(#paint0_linear_1519_8294)"/>
<path d="M40.9537 36.7163L34.8311 30.5827L40.9532 24.4501L48.3444 28.656C49.2829 29.1902 49.8099 29.8786 49.898 30.5821V30.5849C49.8099 31.2867 49.2829 31.9758 48.3444 32.5098L40.9538 36.7162" fill="url(#paint1_linear_1519_8294)"/>
<path d="M17.7771 49.4595C17.2641 49.4599 16.8165 49.2923 16.4674 48.9768V48.9764L34.8311 30.5828L40.9538 36.7164L19.4377 48.9613C18.8425 49.2994 18.2784 49.4595 17.7771 49.4595Z" fill="url(#paint2_linear_1519_8294)"/>
<path d="M34.831 30.5828L16.4655 12.188C16.8146 11.8731 17.2616 11.7061 17.774 11.7061C18.2767 11.7061 18.8412 11.8667 19.4376 12.2054L40.9531 24.4502L34.831 30.5828" fill="url(#paint3_linear_1519_8294)"/>
<path d="M17.7777 49.6768C17.2647 49.6768 16.8164 49.5091 16.4673 49.1937L16.4667 49.1942C16.4653 49.1928 16.4638 49.1914 16.4621 49.1902L16.3666 49.0968C16.3636 49.0938 16.3608 49.0904 16.3573 49.087L16.4674 48.9767C16.8165 49.2922 17.2641 49.4598 17.7772 49.4592C18.2785 49.4592 18.8425 49.2992 19.4378 48.9611L40.9538 36.7163L41.0916 36.8544L40.952 36.9339L19.4377 49.178C18.8952 49.486 18.3792 49.6466 17.9132 49.6734C17.868 49.6756 17.8229 49.6767 17.7777 49.6767" fill="url(#paint4_linear_1519_8294)"/>
<path d="M16.357 49.0872C15.9257 48.6301 15.671 47.9208 15.671 47.001V46.7847C15.671 47.7039 15.9257 48.4137 16.357 48.8708L16.4671 48.9764L16.357 49.0872Z" fill="url(#paint5_linear_1519_8294)"/>
<path d="M41.0916 36.8544L40.9537 36.7163L48.3443 32.5099C49.283 31.9759 49.8099 31.2868 49.898 30.585C49.898 30.8425 49.8406 31.1 49.7266 31.3506C49.4967 31.8558 49.0359 32.3331 48.3444 32.7268L41.0916 36.8545" fill="url(#paint6_linear_1519_8294)"/>
<path d="M49.898 30.5823C49.8099 29.8788 49.283 29.1904 48.3444 28.6562L40.9531 24.4503L41.091 24.3121H41.0916L48.3444 28.4398C49.3792 29.0291 49.8974 29.8056 49.898 30.5823Z" fill="url(#paint7_linear_1519_8294)"/>
<path d="M15.671 14.3826V14.1557C15.671 14.0739 15.6732 13.9939 15.6774 13.9162V13.9127C15.6774 13.9116 15.6774 13.9105 15.6778 13.9093V13.9005C15.7225 13.1088 15.968 12.4913 16.357 12.0789L16.4654 12.1879C15.968 12.6375 15.671 13.3873 15.671 14.3826Z" fill="url(#paint8_linear_1519_8294)"/>
<path d="M40.9532 24.4504L19.4378 12.2055C18.8413 11.8669 18.2769 11.7063 17.7742 11.7063C17.2618 11.7063 16.8147 11.8733 16.4657 12.1882L16.3573 12.0792C16.3911 12.0433 16.4263 12.0087 16.4627 11.9754C16.4639 11.9742 16.4657 11.973 16.4668 11.9719C16.8131 11.6594 17.2554 11.4923 17.7633 11.4893H17.7742C18.2769 11.4893 18.8413 11.65 19.4378 11.9888L41.0916 24.3118L41.091 24.3123L40.9532 24.4504Z" fill="url(#paint9_linear_1519_8294)"/>
<defs>
<linearGradient id="paint0_linear_1519_8294" x1="27.4077" y1="13.8185" x2="11.5807" y2="29.6709" gradientUnits="userSpaceOnUse">
<stop stop-color="#00A0FF"/>
<stop offset="0.00657" stop-color="#00A1FF"/>
<stop offset="0.2601" stop-color="#00BEFF"/>
<stop offset="0.5122" stop-color="#00D2FF"/>
<stop offset="0.7604" stop-color="#00DFFF"/>
<stop offset="1" stop-color="#00E3FF"/>
</linearGradient>
<linearGradient id="paint1_linear_1519_8294" x1="51.0415" y1="30.4767" x2="15.1742" y2="30.4767" gradientUnits="userSpaceOnUse">
<stop stop-color="#FFE000"/>
<stop offset="0.4087" stop-color="#FFBD00"/>
<stop offset="0.7754" stop-color="#FFA500"/>
<stop offset="1" stop-color="#FF9C00"/>
</linearGradient>
<linearGradient id="paint2_linear_1519_8294" x1="37.7032" y1="36.4144" x2="10.8832" y2="63.0814" gradientUnits="userSpaceOnUse">
<stop stop-color="#FF3A44"/>
<stop offset="1" stop-color="#C31162"/>
</linearGradient>
<linearGradient id="paint3_linear_1519_8294" x1="11.7321" y1="9.46091" x2="23.6852" y2="21.3641" gradientUnits="userSpaceOnUse">
<stop stop-color="#32A071"/>
<stop offset="0.0685" stop-color="#2DA771"/>
<stop offset="0.4762" stop-color="#15CF74"/>
<stop offset="0.8009" stop-color="#06E775"/>
<stop offset="1" stop-color="#00F076"/>
</linearGradient>
<linearGradient id="paint4_linear_1519_8294" x1="37.6898" y1="40.6689" x2="16.2111" y2="62.1824" gradientUnits="userSpaceOnUse">
<stop stop-color="#CC2E36"/>
<stop offset="1" stop-color="#9C0E4E"/>
</linearGradient>
<linearGradient id="paint5_linear_1519_8294" x1="18.1176" y1="13.8188" x2="4.17425" y2="27.7848" gradientUnits="userSpaceOnUse">
<stop stop-color="#008DE0"/>
<stop offset="0.00657" stop-color="#008DE0"/>
<stop offset="0.2601" stop-color="#00A7E0"/>
<stop offset="0.5122" stop-color="#00B8E0"/>
<stop offset="0.7604" stop-color="#00C4E0"/>
<stop offset="1" stop-color="#00C7E0"/>
</linearGradient>
<linearGradient id="paint6_linear_1519_8294" x1="51.0416" y1="30.5836" x2="15.1741" y2="30.5836" gradientUnits="userSpaceOnUse">
<stop stop-color="#E0C500"/>
<stop offset="0.4087" stop-color="#E0A600"/>
<stop offset="0.7754" stop-color="#E09100"/>
<stop offset="1" stop-color="#E08900"/>
</linearGradient>
<linearGradient id="paint7_linear_1519_8294" x1="51.0416" y1="30.5837" x2="15.1742" y2="30.5837" gradientUnits="userSpaceOnUse">
<stop stop-color="#FFE840"/>
<stop offset="0.4087" stop-color="#FFCE40"/>
<stop offset="0.7754" stop-color="#FFBC40"/>
<stop offset="1" stop-color="#FFB540"/>
</linearGradient>
<linearGradient id="paint8_linear_1519_8294" x1="18.1024" y1="13.8439" x2="4.67256" y2="26.7127" gradientUnits="userSpaceOnUse">
<stop stop-color="#40B8FF"/>
<stop offset="0.00657" stop-color="#40B9FF"/>
<stop offset="0.2601" stop-color="#40CEFF"/>
<stop offset="0.5122" stop-color="#40DDFF"/>
<stop offset="0.7604" stop-color="#40E7FF"/>
<stop offset="1" stop-color="#40EAFF"/>
</linearGradient>
<linearGradient id="paint9_linear_1519_8294" x1="11.7055" y1="13.3513" x2="21.2967" y2="22.9581" gradientUnits="userSpaceOnUse">
<stop stop-color="#65B895"/>
<stop offset="0.0685" stop-color="#62BD95"/>
<stop offset="0.4762" stop-color="#50DB97"/>
<stop offset="0.8009" stop-color="#44ED98"/>
<stop offset="1" stop-color="#40F498"/>
</linearGradient>
</defs>
</svg>
