<svg width="25" height="20" viewBox="0 0 25 20" fill="none" xmlns="http://www.w3.org/2000/svg">
<path d="M3.24405 1H21.2512C21.8453 1.0033 22.4142 1.24009 22.8343 1.65898C23.2544 2.07787 23.4919 2.64505 23.4952 3.23744V16.704C23.4919 17.2964 23.2544 17.8636 22.8343 18.2825C22.4142 18.7014 21.8453 18.9382 21.2512 18.9415H3.24405C2.64991 18.9382 2.08105 18.7014 1.66093 18.2825C1.2408 17.8636 1.00331 17.2964 1 16.704V3.23744C1.00331 2.64505 1.2408 2.07787 1.66093 1.65898C2.08105 1.24009 2.64991 1.0033 3.24405 1Z" stroke="white" stroke-width="2" stroke-linecap="round" stroke-linejoin="round"/>
<path d="M23.5008 3.24219L12.2497 11.0942L1 3.24219" stroke="white" stroke-width="2" stroke-linecap="round" stroke-linejoin="round"/>
</svg>
