<svg width="303" height="46" viewBox="0 0 303 46" fill="none" xmlns="http://www.w3.org/2000/svg">
<circle opacity="0.1" cx="22.8605" cy="22.8615" r="22.8605" fill="white"/>
<path d="M25.809 16.3005H27.69V13.024C27.3655 12.9794 26.2494 12.8789 24.9496 12.8789C22.2375 12.8789 20.3796 14.585 20.3796 17.7206V20.6064H17.3867V24.2692H20.3796V33.4856H24.049V24.2701H26.9208L27.3767 20.6073H24.0481V18.0838C24.049 17.0251 24.334 16.3005 25.809 16.3005Z" fill="white"/>
<circle opacity="0.1" cx="84.6803" cy="22.8605" r="22.8605" fill="white"/>
<path d="M97.2377 15.3184C96.2798 15.7321 95.2591 16.0064 94.195 16.1395C95.2897 15.496 96.1252 14.4846 96.5181 13.2657C95.4974 13.8649 94.3705 14.2881 93.1695 14.5243C92.2003 13.5082 90.819 12.8789 89.3122 12.8789C86.3886 12.8789 84.0349 15.2154 84.0349 18.0797C84.0349 18.4918 84.0704 18.8881 84.1573 19.2654C79.7671 19.0546 75.8824 16.9828 73.2728 13.8268C72.8172 14.6051 72.5499 15.496 72.5499 16.455C72.5499 18.2557 73.4917 19.8519 74.8956 20.776C74.0472 20.7602 73.2148 20.5176 72.5097 20.1356C72.5097 20.1515 72.5097 20.1721 72.5097 20.1927C72.5097 22.7194 74.3402 24.8181 76.7405 25.3015C76.3107 25.4173 75.8422 25.4727 75.356 25.4727C75.0179 25.4727 74.6766 25.4537 74.3563 25.384C75.0405 27.443 76.982 28.9568 79.2906 29.006C77.4939 30.3898 75.2127 31.2236 72.7431 31.2236C72.3101 31.2236 71.8947 31.2046 71.4794 31.1522C73.8185 32.6375 76.5908 33.4856 79.5804 33.4856C89.2977 33.4856 94.6103 25.5599 94.6103 18.69C94.6103 18.4601 94.6023 18.2382 94.591 18.0179C95.6391 17.2856 96.5197 16.3709 97.2377 15.3184Z" fill="white"/>
<circle opacity="0.1" cx="147.144" cy="22.8605" r="22.8605" fill="white"/>
<path d="M139.134 12.8789C137.553 12.8789 136.519 13.917 136.519 15.2814C136.519 16.6156 137.522 17.6833 139.073 17.6833H139.103C140.715 17.6833 141.718 16.6156 141.718 15.2814C141.688 13.917 140.715 12.8789 139.134 12.8789Z" fill="white"/>
<path d="M136.792 19.582H141.414V33.4859H136.792V19.582Z" fill="white"/>
<path d="M152.757 19.2549C150.264 19.2549 148.592 21.5976 148.592 21.5976V19.5812H143.971V33.4851H148.592V25.7206C148.592 25.305 148.622 24.8899 148.744 24.5927C149.078 23.7627 149.839 22.9028 151.115 22.9028C152.788 22.9028 153.457 24.1778 153.457 26.047V33.4851H158.078V25.5129C158.078 21.2422 155.798 19.2549 152.757 19.2549Z" fill="white"/>
<circle opacity="0.1" cx="209.861" cy="22.8605" r="22.8605" fill="white"/>
<path fill-rule="evenodd" clip-rule="evenodd" d="M205.465 12.066C206.638 12.012 207.012 12 210 12C212.988 12 213.362 12.013 214.534 12.066C215.706 12.119 216.506 12.306 217.206 12.577C217.939 12.854 218.604 13.287 219.154 13.847C219.714 14.396 220.146 15.06 220.422 15.794C220.694 16.494 220.88 17.294 220.934 18.464C220.988 19.639 221 20.013 221 23C221 25.988 220.987 26.362 220.934 27.535C220.881 28.705 220.694 29.505 220.422 30.205C220.146 30.9391 219.713 31.6042 219.154 32.154C218.604 32.714 217.939 33.146 217.206 33.422C216.506 33.694 215.706 33.88 214.536 33.934C213.362 33.988 212.988 34 210 34C207.012 34 206.638 33.987 205.465 33.934C204.295 33.881 203.495 33.694 202.795 33.422C202.061 33.146 201.396 32.7133 200.846 32.154C200.286 31.6047 199.853 30.9399 199.577 30.206C199.306 29.506 199.12 28.706 199.066 27.536C199.012 26.361 199 25.987 199 23C199 20.012 199.013 19.638 199.066 18.466C199.119 17.294 199.306 16.494 199.577 15.794C199.854 15.0601 200.287 14.3953 200.847 13.846C201.396 13.2865 202.06 12.8534 202.794 12.577C203.494 12.306 204.294 12.12 205.464 12.066H205.465ZM214.445 14.046C213.285 13.993 212.937 13.982 210 13.982C207.063 13.982 206.715 13.993 205.555 14.046C204.482 14.095 203.9 14.274 203.512 14.425C202.999 14.625 202.632 14.862 202.247 15.247C201.882 15.6021 201.601 16.0343 201.425 16.512C201.274 16.9 201.095 17.482 201.046 18.555C200.993 19.715 200.982 20.063 200.982 23C200.982 25.937 200.993 26.285 201.046 27.445C201.095 28.518 201.274 29.1 201.425 29.488C201.601 29.965 201.882 30.398 202.247 30.753C202.602 31.118 203.035 31.399 203.512 31.575C203.9 31.726 204.482 31.905 205.555 31.954C206.715 32.007 207.062 32.018 210 32.018C212.938 32.018 213.285 32.007 214.445 31.954C215.518 31.905 216.1 31.726 216.488 31.575C217.001 31.375 217.368 31.138 217.753 30.753C218.118 30.398 218.399 29.965 218.575 29.488C218.726 29.1 218.905 28.518 218.954 27.445C219.007 26.285 219.018 25.937 219.018 23C219.018 20.063 219.007 19.715 218.954 18.555C218.905 17.482 218.726 16.9 218.575 16.512C218.375 15.999 218.138 15.632 217.753 15.247C217.398 14.8821 216.966 14.6012 216.488 14.425C216.1 14.274 215.518 14.095 214.445 14.046ZM208.595 26.391C209.38 26.7176 210.253 26.7617 211.067 26.5157C211.88 26.2697 212.583 25.7489 213.056 25.0422C213.528 24.3356 213.74 23.4869 213.656 22.6411C213.572 21.7953 213.197 21.005 212.595 20.405C212.211 20.0215 211.747 19.7278 211.236 19.5451C210.725 19.3625 210.18 19.2954 209.64 19.3486C209.101 19.4019 208.579 19.5742 208.114 19.8531C207.648 20.1321 207.251 20.5107 206.949 20.9619C206.648 21.413 206.45 21.9253 206.371 22.462C206.291 22.9986 206.331 23.5463 206.489 24.0655C206.646 24.5847 206.916 25.0626 207.281 25.4647C207.645 25.8668 208.094 26.1832 208.595 26.391ZM206.002 19.002C206.527 18.477 207.15 18.0605 207.836 17.7764C208.522 17.4922 209.258 17.346 210 17.346C210.742 17.346 211.478 17.4922 212.164 17.7764C212.85 18.0605 213.473 18.477 213.998 19.002C214.523 19.527 214.939 20.1503 215.224 20.8363C215.508 21.5223 215.654 22.2575 215.654 23C215.654 23.7425 215.508 24.4777 215.224 25.1637C214.939 25.8497 214.523 26.473 213.998 26.998C212.938 28.0583 211.5 28.654 210 28.654C208.5 28.654 207.062 28.0583 206.002 26.998C204.942 25.9377 204.346 24.4995 204.346 23C204.346 21.5005 204.942 20.0623 206.002 19.002ZM216.908 18.188C217.038 18.0653 217.142 17.9177 217.214 17.754C217.286 17.5903 217.325 17.4138 217.327 17.2349C217.33 17.0561 217.297 16.8785 217.229 16.7128C217.162 16.5471 217.062 16.3965 216.936 16.27C216.809 16.1436 216.659 16.0438 216.493 15.9765C216.327 15.9093 216.15 15.876 215.971 15.8786C215.792 15.8812 215.616 15.9197 215.452 15.9917C215.288 16.0637 215.141 16.1679 215.018 16.298C214.779 16.551 214.649 16.8871 214.654 17.2349C214.659 17.5827 214.799 17.9149 215.045 18.1608C215.291 18.4068 215.623 18.5472 215.971 18.5523C216.319 18.5574 216.655 18.4267 216.908 18.188Z" fill="white"/>
<path d="M291 20.7105C291.049 19.2791 290.736 17.8585 290.09 16.5805C289.651 16.0561 289.043 15.7022 288.37 15.5805C285.588 15.328 282.794 15.2245 280 15.2705C277.217 15.2224 274.433 15.3226 271.66 15.5705C271.112 15.6702 270.605 15.9273 270.2 16.3105C269.3 17.1405 269.2 18.5605 269.1 19.7605C268.955 21.918 268.955 24.0829 269.1 26.2405C269.129 26.9159 269.23 27.5863 269.4 28.2405C269.521 28.7455 269.765 29.2128 270.11 29.6005C270.517 30.0039 271.036 30.2757 271.6 30.3805C273.756 30.6466 275.928 30.7569 278.1 30.7105C281.6 30.7605 284.67 30.7105 288.3 30.4305C288.877 30.3321 289.411 30.06 289.83 29.6505C290.11 29.3704 290.319 29.0276 290.44 28.6505C290.798 27.5531 290.973 26.4046 290.96 25.2505C291 24.6905 291 21.3105 291 20.7105ZM277.74 25.8505V19.6605L283.66 22.7705C282 23.6905 279.81 24.7305 277.74 25.8505Z" fill="white"/>
<circle opacity="0.1" cx="279.861" cy="22.8605" r="22.8605" fill="white"/>
</svg>
