<svg width="100" height="23" viewBox="0 0 100 23" fill="none" xmlns="http://www.w3.org/2000/svg">
<path d="M16.4818 12.18C16.4818 13.0879 16.3625 13.9636 16.1241 14.8073C15.8949 15.6418 15.5647 16.4259 15.1337 17.1595C14.7027 17.884 14.1892 18.5488 13.5931 19.1541C12.997 19.7501 12.3322 20.2637 11.5985 20.6947C10.8649 21.1257 10.0763 21.4604 9.2326 21.6988C8.39809 21.9281 7.52691 22.0427 6.61905 22.0427H0.676657V2.3173H6.61905C7.52691 2.3173 8.39809 2.43651 9.2326 2.67494C10.0763 2.9042 10.8649 3.23433 11.5985 3.66534C12.3322 4.09634 12.997 4.61447 13.5931 5.21971C14.1892 5.81579 14.7027 6.48064 15.1337 7.21426C15.5647 7.93872 15.8949 8.72279 16.1241 9.56646C16.3625 10.401 16.4818 11.2721 16.4818 12.18ZM12.5339 12.18C12.5339 11.3638 12.378 10.5981 12.0662 9.88284C11.7636 9.16755 11.3418 8.54397 10.8007 8.01208C10.2688 7.47103 9.64068 7.04461 8.91622 6.73282C8.20093 6.42103 7.43521 6.26513 6.61905 6.26513H4.65201V18.0949H6.61905C7.43521 18.0949 8.20093 17.9436 8.91622 17.641C9.64068 17.3292 10.2688 16.9073 10.8007 16.3754C11.3418 15.8344 11.7636 15.2062 12.0662 14.4909C12.378 13.7665 12.5339 12.9962 12.5339 12.18ZM24.4292 18.4388C24.5759 18.4846 24.7226 18.5167 24.8693 18.5351C25.0161 18.5442 25.1628 18.5488 25.3095 18.5488C25.6763 18.5488 26.0294 18.4984 26.3687 18.3975C26.708 18.2966 27.0244 18.1545 27.3178 17.9711C27.6204 17.7785 27.8864 17.5493 28.1156 17.2833C28.3541 17.0082 28.5466 16.7056 28.6934 16.3754L31.4445 19.1403C31.096 19.6355 30.6925 20.0803 30.234 20.4746C29.7846 20.8689 29.294 21.2036 28.7621 21.4787C28.2394 21.7539 27.6846 21.9602 27.0977 22.0977C26.52 22.2445 25.9239 22.3178 25.3095 22.3178C24.2733 22.3178 23.2966 22.1253 22.3796 21.7401C21.4717 21.3549 20.6739 20.8185 19.9861 20.1307C19.3075 19.4429 18.771 18.6268 18.3767 17.6822C17.9824 16.7285 17.7852 15.6831 17.7852 14.546C17.7852 13.3813 17.9824 12.3176 18.3767 11.3547C18.771 10.3918 19.3075 9.57104 19.9861 8.89244C20.6739 8.21383 21.4717 7.68654 22.3796 7.31055C23.2966 6.93457 24.2733 6.74658 25.3095 6.74658C25.9239 6.74658 26.5246 6.81994 27.1115 6.96666C27.6984 7.11339 28.2532 7.32431 28.7759 7.59942C29.3078 7.87453 29.803 8.21383 30.2615 8.61733C30.72 9.01165 31.1235 9.45642 31.472 9.95161L24.4292 18.4388ZM26.3549 10.6944C26.1807 10.6302 26.0065 10.589 25.8322 10.5706C25.6672 10.5523 25.4929 10.5431 25.3095 10.5431C24.796 10.5431 24.3099 10.6394 23.8514 10.832C23.4021 11.0154 23.0078 11.2813 22.6684 11.6298C22.3383 11.9783 22.077 12.4001 21.8844 12.8953C21.6918 13.3813 21.5955 13.9315 21.5955 14.546C21.5955 14.6835 21.6001 14.8394 21.6093 15.0136C21.6276 15.1879 21.6505 15.3667 21.678 15.5501C21.7147 15.7244 21.756 15.894 21.8018 16.0591C21.8477 16.2241 21.9073 16.3709 21.9807 16.4992L26.3549 10.6944ZM37.2185 22.0427L31.6062 7.31055H35.8842L39.103 16.4992L42.308 7.31055H46.5998L40.9875 22.0427H37.2185ZM52.3188 3.30769C52.3188 3.65617 52.25 3.98171 52.1124 4.28434C51.984 4.58696 51.8052 4.8529 51.576 5.08216C51.3467 5.30225 51.0762 5.48107 50.7644 5.61862C50.4618 5.74701 50.1362 5.8112 49.7877 5.8112C49.4393 5.8112 49.1091 5.74701 48.7974 5.61862C48.4947 5.48107 48.2288 5.30225 47.9995 5.08216C47.7794 4.8529 47.6006 4.58696 47.4631 4.28434C47.3347 3.98171 47.2705 3.65617 47.2705 3.30769C47.2705 2.96839 47.3347 2.64743 47.4631 2.34481C47.6006 2.03301 47.7794 1.76707 47.9995 1.54699C48.2288 1.31773 48.4947 1.13891 48.7974 1.01052C49.1091 0.872965 49.4393 0.804188 49.7877 0.804188C50.1362 0.804188 50.4618 0.872965 50.7644 1.01052C51.0762 1.13891 51.3467 1.31773 51.576 1.54699C51.8052 1.76707 51.984 2.03301 52.1124 2.34481C52.25 2.64743 52.3188 2.96839 52.3188 3.30769ZM51.6723 22.0427H47.8895V7.31055H51.6723V22.0427ZM58.1616 22.0427H54.4063V7.31055H55.3142L56.5522 8.74113C57.1574 8.19091 57.8406 7.76907 58.6017 7.47562C59.3721 7.173 60.1745 7.02169 61.009 7.02169C61.9077 7.02169 62.7559 7.19592 63.5537 7.5444C64.3516 7.8837 65.0485 8.35597 65.6446 8.96122C66.2406 9.55729 66.7083 10.2588 67.0476 11.0658C67.3961 11.8636 67.5703 12.7165 67.5703 13.6243V22.0427H63.8151V13.6243C63.8151 13.2392 63.7417 12.877 63.595 12.5377C63.4483 12.1892 63.2465 11.8866 62.9898 11.6298C62.733 11.373 62.4349 11.1713 62.0956 11.0245C61.7563 10.8778 61.3941 10.8045 61.009 10.8045C60.6146 10.8045 60.2432 10.8778 59.8948 11.0245C59.5463 11.1713 59.2437 11.373 58.9869 11.6298C58.7301 11.8866 58.5284 12.1892 58.3817 12.5377C58.2349 12.877 58.1616 13.2392 58.1616 13.6243V22.0427ZM75.9717 18.4388C76.1184 18.4846 76.2651 18.5167 76.4119 18.5351C76.5586 18.5442 76.7053 18.5488 76.852 18.5488C77.2188 18.5488 77.5719 18.4984 77.9112 18.3975C78.2505 18.2966 78.5669 18.1545 78.8603 17.9711C79.163 17.7785 79.4289 17.5493 79.6582 17.2833C79.8966 17.0082 80.0892 16.7056 80.2359 16.3754L82.987 19.1403C82.6385 19.6355 82.235 20.0803 81.7765 20.4746C81.3272 20.8689 80.8365 21.2036 80.3047 21.4787C79.782 21.7539 79.2271 21.9602 78.6402 22.0977C78.0625 22.2445 77.4664 22.3178 76.852 22.3178C75.8158 22.3178 74.8391 22.1253 73.9221 21.7401C73.0142 21.3549 72.2164 20.8185 71.5286 20.1307C70.85 19.4429 70.3136 18.6268 69.9192 17.6822C69.5249 16.7285 69.3278 15.6831 69.3278 14.546C69.3278 13.3813 69.5249 12.3176 69.9192 11.3547C70.3136 10.3918 70.85 9.57104 71.5286 8.89244C72.2164 8.21383 73.0142 7.68654 73.9221 7.31055C74.8391 6.93457 75.8158 6.74658 76.852 6.74658C77.4664 6.74658 78.0671 6.81994 78.654 6.96666C79.2409 7.11339 79.7957 7.32431 80.3184 7.59942C80.8503 7.87453 81.3455 8.21383 81.804 8.61733C82.2625 9.01165 82.666 9.45642 83.0145 9.95161L75.9717 18.4388ZM77.8974 10.6944C77.7232 10.6302 77.549 10.589 77.3747 10.5706C77.2097 10.5523 77.0354 10.5431 76.852 10.5431C76.3385 10.5431 75.8525 10.6394 75.3939 10.832C74.9446 11.0154 74.5503 11.2813 74.211 11.6298C73.8808 11.9783 73.6195 12.4001 73.4269 12.8953C73.2343 13.3813 73.138 13.9315 73.138 14.546C73.138 14.6835 73.1426 14.8394 73.1518 15.0136C73.1701 15.1879 73.1931 15.3667 73.2206 15.5501C73.2572 15.7244 73.2985 15.894 73.3444 16.0591C73.3902 16.2241 73.4498 16.3709 73.5232 16.4992L77.8974 10.6944ZM90.3291 22.0427H86.3813V6.26513H84.4143V2.3173H90.3291V22.0427ZM99.1569 22.0427H95.2091V6.26513H93.242V2.3173H99.1569V22.0427Z" fill="white"/>
</svg>
