<svg width="55" height="62" viewBox="0 0 55 62" fill="none" xmlns="http://www.w3.org/2000/svg">
<g filter="url(#filter0_d_1510_15687)">
<path fill-rule="evenodd" clip-rule="evenodd" d="M27.2659 51.0082C24.9265 50.2749 17.6291 44.8978 12.252 34.4579C9.03973 28.2429 6.45594 20.2122 6.00203 10.296C5.96712 9.77229 6.38611 9.31838 6.90985 9.28346C9.10956 9.1438 11.3442 8.86447 13.509 8.44548C13.4741 7.398 13.2297 6.24577 14.2422 6.03627C18.6067 5.09354 23.8092 3.31282 26.8818 0.27512C27.2659 -0.108957 27.8595 -0.0740409 28.2086 0.27512C31.2813 3.2779 36.4838 5.05862 40.8483 6.03627C41.8259 6.24577 41.5815 7.398 41.5466 8.44548C43.7114 8.86447 45.9809 9.17871 48.1457 9.28346C48.6695 9.31838 49.0885 9.77229 49.0535 10.296C48.5647 20.2122 46.0158 28.2429 42.8036 34.4579C37.3916 44.9328 30.0243 50.3447 27.7897 51.0082C27.6151 51.078 27.4405 51.078 27.2659 51.0082Z" fill="white"/>
<path fill-rule="evenodd" clip-rule="evenodd" d="M27.5443 50.1004C24.1575 49.1227 8.20082 36.3086 6.97876 10.2612C10.226 10.0866 13.7176 9.52793 16.9997 8.62012H38.1239C41.406 9.52793 44.8976 10.0517 48.1448 10.2612C46.8878 36.3086 30.9312 49.1227 27.5443 50.1004Z" fill="white"/>
<path fill-rule="evenodd" clip-rule="evenodd" d="M27.5443 47.8311C24.8907 46.8884 12.3558 34.6677 11.5178 9.8075C13.3684 9.52818 15.2189 9.1441 16.9996 8.65527H38.1239C39.9046 9.1441 41.7551 9.52818 43.6057 9.8075C42.7328 34.6677 30.1979 46.8884 27.5443 47.8311Z" fill="white"/>
<path fill-rule="evenodd" clip-rule="evenodd" d="M27.5443 46.0153C21.2944 41.581 15.9173 24.0881 15.0793 17.6286C14.7301 15.0099 14.5206 10.0169 14.4508 7.01411C19.6882 5.86188 24.6114 3.90658 27.5443 1.00854C30.4773 3.90658 35.4354 5.86188 40.6378 7.01411C40.568 10.0169 40.3585 15.0099 40.0094 17.6286C39.1714 24.0881 33.899 41.4762 27.5443 46.0153Z" fill="#323151"/>
<path fill-rule="evenodd" clip-rule="evenodd" d="M27.5435 37.1465L28.3466 38.9621L30.3019 39.1716L28.8354 40.4635L29.2544 42.3839L27.5435 41.4062L25.8326 42.3839L26.2516 40.4635L24.7852 39.1716L26.7405 38.9621L27.5435 37.1465Z" fill="white"/>
<path fill-rule="evenodd" clip-rule="evenodd" d="M27.5447 35.6801C34.4232 35.6801 40.0447 30.0586 40.0447 23.1801C40.0447 16.3017 34.4232 10.6802 27.5447 10.6802C20.6663 10.6802 15.0448 16.3017 15.0448 23.1801C15.0448 30.0586 20.6663 35.6801 27.5447 35.6801Z" fill="white"/>
<path fill-rule="evenodd" clip-rule="evenodd" d="M27.5447 33.7597C34.4232 33.7597 40.0447 28.1382 40.0447 21.2597C40.0447 14.3813 34.4232 8.75977 27.5447 8.75977C20.6663 8.75977 15.0448 14.3813 15.0448 21.2597C15.0448 28.1382 20.6663 33.7597 27.5447 33.7597Z" fill="#D0D0D0"/>
<g clip-path="url(#clip0_1510_15687)">
<path d="M35.9905 11.5488C30.4678 6.92733 22.2444 7.65791 17.623 13.1805C13.0015 18.7032 13.7321 26.9266 19.2548 31.548C24.7774 36.1695 33.0009 35.439 37.6223 29.9163C42.2438 24.3936 41.5132 16.1702 35.9905 11.5488Z" fill="url(#paint0_linear_1510_15687)"/>
<path d="M35.9901 11.5479C35.6108 11.2306 35.2138 10.9352 34.8009 10.6629L18.1735 30.5327C18.5143 30.8911 18.8751 31.2299 19.2543 31.5473C19.6336 31.8646 20.0306 32.16 20.4435 32.4323L37.0709 12.5625C36.7302 12.2041 36.3693 11.8653 35.9901 11.5479V11.5479Z" fill="url(#paint1_linear_1510_15687)"/>
<path d="M32.503 9.45719C32.1006 9.29215 31.7469 9.17248 31.36 9.05679L30.0629 10.6068C29.8614 10.8476 29.8934 11.2037 30.1341 11.4052C30.3749 11.6067 30.7307 11.575 30.9322 11.3343L32.503 9.45719Z" fill="url(#paint2_linear_1510_15687)"/>
<path d="M28.9063 12.8717C29.147 13.0732 29.1787 13.4293 28.9772 13.6701L28.2354 14.5565C28.034 14.7972 27.6779 14.8289 27.4371 14.6274C27.1963 14.4259 27.1647 14.0699 27.3662 13.8291L28.108 12.9427C28.3095 12.7019 28.6655 12.6702 28.9063 12.8717Z" fill="url(#paint3_linear_1510_15687)"/>
<path d="M26.2098 16.0939C26.4505 16.2954 26.4822 16.6514 26.2807 16.8922L25.5389 17.7786C25.3374 18.0194 24.9814 18.0511 24.7406 17.8496C24.4998 17.6481 24.4682 17.2921 24.6697 17.0513L25.4115 16.1648C25.613 15.924 25.969 15.8924 26.2098 16.0939Z" fill="url(#paint4_linear_1510_15687)"/>
<path d="M23.5132 19.3168C23.754 19.5183 23.7856 19.8743 23.5841 20.1151L22.8424 21.0015C22.6409 21.2423 22.2849 21.274 22.0441 21.0725C21.8033 20.871 21.7716 20.515 21.9731 20.2742L22.7149 19.3877C22.9164 19.147 23.2724 19.1153 23.5132 19.3168Z" fill="url(#paint5_linear_1510_15687)"/>
<path d="M20.8166 22.5387C21.0573 22.7402 21.089 23.0963 20.8875 23.337L20.1457 24.2235C19.9443 24.4642 19.5882 24.4959 19.3474 24.2944C19.1066 24.0929 19.075 23.7369 19.2765 23.4961L20.0183 22.6097C20.2198 22.3689 20.5758 22.3372 20.8166 22.5387Z" fill="url(#paint6_linear_1510_15687)"/>
<path d="M18.1203 25.7613C17.8795 25.5599 17.523 25.5915 17.3216 25.8323L15.9851 27.4294C16.1673 27.7898 16.3662 28.1416 16.581 28.4836L18.1909 26.5597C18.3924 26.319 18.361 25.9628 18.1203 25.7613Z" fill="url(#paint7_linear_1510_15687)"/>
<path d="M38.6653 14.6135C38.8987 14.9805 39.0788 15.3075 39.2609 15.668L37.9638 17.2181C37.7624 17.4588 37.4062 17.4901 37.1654 17.2887C36.9247 17.0872 36.893 16.7314 37.0945 16.4906L38.6653 14.6135Z" fill="url(#paint8_linear_1510_15687)"/>
<path d="M35.9383 18.7558C35.6975 18.5543 35.3415 18.5859 35.14 18.8267L34.3982 19.7131C34.1967 19.9539 34.2283 20.3099 34.4691 20.5114C34.7099 20.7129 35.0659 20.6813 35.2674 20.4405L36.0092 19.5541C36.2106 19.3133 36.179 18.9572 35.9383 18.7558Z" fill="url(#paint9_linear_1510_15687)"/>
<path d="M33.2415 21.9782C33.0008 21.7767 32.6447 21.8083 32.4432 22.0491L31.7014 22.9355C31.5 23.1763 31.5316 23.5323 31.7723 23.7338C32.0131 23.9353 32.3691 23.9037 32.5706 23.6629L33.3124 22.7765C33.5139 22.5357 33.4822 22.1797 33.2415 21.9782Z" fill="url(#paint10_linear_1510_15687)"/>
<path d="M30.545 25.2006C30.3042 24.9991 29.9482 25.0307 29.7467 25.2715L29.0049 26.158C28.8034 26.3987 28.835 26.7548 29.0758 26.9563C29.3166 27.1577 29.6726 27.1261 29.8741 26.8853L30.6159 25.9989C30.8173 25.7581 30.7857 25.4021 30.545 25.2006Z" fill="url(#paint11_linear_1510_15687)"/>
<path d="M27.8484 28.4233C27.6077 28.2218 27.2516 28.2534 27.0501 28.4942L26.3084 29.3806C26.1069 29.6214 26.1385 29.9774 26.3793 30.1789C26.62 30.3804 26.9761 30.3488 27.1776 30.108L27.9194 29.2216C28.1208 28.9807 28.0892 28.6247 27.8484 28.4233Z" fill="url(#paint12_linear_1510_15687)"/>
<path d="M25.1516 31.6453C25.3924 31.8468 25.4241 32.2033 25.2226 32.444L23.8861 34.0411C23.4992 33.9253 23.1179 33.7916 22.7434 33.6404L24.3533 31.7166C24.5548 31.4758 24.9109 31.4439 25.1516 31.6453Z" fill="url(#paint13_linear_1510_15687)"/>
<path d="M29.823 10.2597L29.3734 10.1815L29.3361 10.4067L29.7821 10.4841L29.823 10.2597ZM28.6859 10.097L28.2297 10.066L28.2163 10.2915L28.6691 10.3241L28.6859 10.097ZM27.5387 10.051L27.0793 10.0632L27.0911 10.29L27.5411 10.2787L27.5387 10.051ZM26.3907 10.116L25.9376 10.1729L25.9673 10.3994L26.4167 10.3416L26.3907 10.116ZM25.2552 10.2944L24.8098 10.3972L24.8628 10.6192L25.3048 10.5179L25.2552 10.2944ZM24.1416 10.5855L23.7098 10.7348L23.7859 10.9476L24.2145 10.8021L24.1416 10.5855ZM23.0665 10.9876L22.6501 11.1761L22.7448 11.3825L23.159 11.1965L23.0665 10.9876ZM22.0353 11.4944L21.6393 11.7241L21.7557 11.9202L22.1483 11.6921L22.0353 11.4944ZM21.0609 12.1036L20.6887 12.3729L20.8265 12.554L21.1907 12.289L21.0609 12.1036ZM20.1509 12.8061L19.8092 13.1097L19.9614 13.2787L20.2997 12.9766L20.1509 12.8061ZM19.3167 13.5961L19.0068 13.935L19.1765 14.0858L19.481 13.7533L19.3167 13.5961ZM18.7452 14.6038L18.5634 14.4648L18.2894 14.8316L18.4731 14.9656L18.7452 14.6038ZM18.0945 15.5254L17.9023 15.4041L17.6637 15.794L17.8591 15.9115L18.0945 15.5254ZM17.5407 16.5041L17.335 16.4042L17.1391 16.8189L17.3444 16.914L17.5407 16.5041ZM17.086 17.5372L16.8736 17.4558L16.7188 17.8895L16.934 17.9623L17.086 17.5372ZM16.7397 18.6084L16.5186 18.5505L16.4077 18.9946L16.6284 19.0478L16.7397 18.6084ZM16.501 19.7082L16.2749 19.6746L16.2113 20.1277L16.437 20.1565L16.501 19.7082ZM16.3726 20.828L16.1449 20.8172L16.127 21.2734L16.3555 21.2805L16.3726 20.828ZM16.3593 21.9544L16.1322 21.9638L16.155 22.4212L16.3829 22.4081L16.3593 21.9544ZM16.4566 23.0768L16.2317 23.1099L16.3005 23.562L16.5263 23.5252L16.4566 23.0768ZM16.6635 24.1835L16.443 24.2401L16.5588 24.6832L16.7778 24.6232L16.6635 24.1835ZM16.9791 25.2652L16.7666 25.3437L16.9262 25.771L17.1386 25.6901L16.9791 25.2652Z" fill="#8F0B30"/>
<path d="M38.3796 17.4198L38.5358 17.8486L38.3207 17.925L38.1659 17.4997L38.3796 17.4198ZM38.7402 18.5106L38.8512 18.9541L38.6316 19.007L38.5197 18.5671L38.7402 18.5106ZM38.9877 19.6316L39.0567 20.086L38.8314 20.1144L38.7632 19.6694L38.9877 19.6316ZM39.1261 20.773L39.15 21.2291L38.9218 21.2398L38.8995 20.7872L39.1261 20.773ZM39.1507 21.9223L39.1281 22.3789L38.9002 22.3657L38.922 21.9128L39.1507 21.9223ZM39.0605 23.0698L38.9896 23.5211L38.7668 23.4837L38.8344 23.0362L39.0605 23.0698ZM38.8542 24.1989L38.742 24.642L38.5222 24.5852L38.6322 24.1447L38.8542 24.1989ZM38.5371 25.3033L38.3808 25.7336L38.1673 25.6535L38.3226 25.2269L38.5371 25.3033ZM38.1092 26.3698L37.9097 26.7837L37.7072 26.68L37.9039 26.2747L38.1092 26.3698ZM37.5782 27.3894L37.3396 27.7793L37.1463 27.6592L37.3841 27.273L37.5782 27.3894ZM36.9476 28.3498L36.6686 28.7146L36.4903 28.5742L36.7639 28.2158L36.9476 28.3498ZM36.0565 29.09L36.2253 29.2445L35.9126 29.5789L35.7483 29.4216L36.0565 29.09ZM35.264 29.893L35.4173 30.0608L35.0756 30.3644L34.9255 30.1928L35.264 29.893ZM34.3983 30.6106L34.5329 30.7956L34.1592 31.0614L34.0293 30.8761L34.3983 30.6106ZM33.4615 31.2403L33.5791 31.4351L33.1794 31.6639L33.0699 31.4649L33.4615 31.2403ZM32.4681 31.7701L32.5641 31.9775L32.1465 32.1649L32.0552 31.9571L32.4681 31.7701ZM31.4276 32.199L31.5006 32.4156L31.0658 32.558L30.9976 32.3409L31.4276 32.199ZM30.348 32.5228L30.3987 32.7449L29.9529 32.843L29.9056 32.6193L30.348 32.5228ZM29.2416 32.7344L29.2724 32.9596L28.8181 33.0178L28.7909 32.7912L29.2416 32.7344ZM28.1196 32.8365L28.1267 33.0637L27.6696 33.0757L27.6659 32.8469L28.1196 32.8365ZM26.9937 32.8279L26.9769 33.0549L26.5203 33.0191L26.5408 32.7929L26.9937 32.8279ZM25.8734 32.7079L25.8335 32.931L25.3848 32.8491L25.427 32.6259L25.8734 32.7079Z" fill="#8F0B30"/>
</g>
</g>
<defs>
<filter id="filter0_d_1510_15687" x="0.717877" y="0" width="53.6198" height="61.6248" filterUnits="userSpaceOnUse" color-interpolation-filters="sRGB">
<feFlood flood-opacity="0" result="BackgroundImageFix"/>
<feColorMatrix in="SourceAlpha" type="matrix" values="0 0 0 0 0 0 0 0 0 0 0 0 0 0 0 0 0 0 127 0" result="hardAlpha"/>
<feOffset dy="5.28212"/>
<feGaussianBlur stdDeviation="2.64106"/>
<feComposite in2="hardAlpha" operator="out"/>
<feColorMatrix type="matrix" values="0 0 0 0 0 0 0 0 0 0 0 0 0 0 0 0 0 0 0.25 0"/>
<feBlend mode="normal" in2="BackgroundImageFix" result="effect1_dropShadow_1510_15687"/>
<feBlend mode="normal" in="SourceGraphic" in2="effect1_dropShadow_1510_15687" result="shape"/>
</filter>
<linearGradient id="paint0_linear_1510_15687" x1="19.2649" y1="31.559" x2="36.0011" y2="11.5591" gradientUnits="userSpaceOnUse">
<stop stop-color="#D90947"/>
<stop offset="1" stop-color="#FF585B"/>
</linearGradient>
<linearGradient id="paint1_linear_1510_15687" x1="19.2543" y1="31.5473" x2="36.3892" y2="11.0708" gradientUnits="userSpaceOnUse">
<stop stop-color="#A90A38"/>
<stop offset="1" stop-color="#E84352"/>
</linearGradient>
<linearGradient id="paint2_linear_1510_15687" x1="32.4777" y1="8.60477" x2="30.2058" y2="11.3196" gradientUnits="userSpaceOnUse">
<stop stop-color="#F6D3B7"/>
<stop offset="1" stop-color="#F6B4CB"/>
</linearGradient>
<linearGradient id="paint3_linear_1510_15687" x1="28.9042" y1="12.8748" x2="27.4847" y2="14.571" gradientUnits="userSpaceOnUse">
<stop stop-color="#F6D3B7"/>
<stop offset="1" stop-color="#F6B4CB"/>
</linearGradient>
<linearGradient id="paint4_linear_1510_15687" x1="26.2077" y1="16.0969" x2="24.7882" y2="17.7931" gradientUnits="userSpaceOnUse">
<stop stop-color="#F6D3B7"/>
<stop offset="1" stop-color="#F6B4CB"/>
</linearGradient>
<linearGradient id="paint5_linear_1510_15687" x1="23.5111" y1="19.3198" x2="22.0917" y2="21.016" gradientUnits="userSpaceOnUse">
<stop stop-color="#F6D3B7"/>
<stop offset="1" stop-color="#F6B4CB"/>
</linearGradient>
<linearGradient id="paint6_linear_1510_15687" x1="20.8145" y1="22.5417" x2="19.395" y2="24.238" gradientUnits="userSpaceOnUse">
<stop stop-color="#F6D3B7"/>
<stop offset="1" stop-color="#F6B4CB"/>
</linearGradient>
<linearGradient id="paint7_linear_1510_15687" x1="18.1183" y1="25.7638" x2="15.8461" y2="28.4791" gradientUnits="userSpaceOnUse">
<stop stop-color="#F6D3B7"/>
<stop offset="1" stop-color="#F6B4CB"/>
</linearGradient>
<linearGradient id="paint8_linear_1510_15687" x1="39.5088" y1="14.4881" x2="37.2369" y2="17.203" gradientUnits="userSpaceOnUse">
<stop stop-color="#F6D3B7"/>
<stop offset="1" stop-color="#F6B4CB"/>
</linearGradient>
<linearGradient id="paint9_linear_1510_15687" x1="35.9356" y1="18.7584" x2="34.5162" y2="20.4546" gradientUnits="userSpaceOnUse">
<stop stop-color="#F6D3B7"/>
<stop offset="1" stop-color="#F6B4CB"/>
</linearGradient>
<linearGradient id="paint10_linear_1510_15687" x1="33.2389" y1="21.9807" x2="31.8194" y2="23.677" gradientUnits="userSpaceOnUse">
<stop stop-color="#F6D3B7"/>
<stop offset="1" stop-color="#F6B4CB"/>
</linearGradient>
<linearGradient id="paint11_linear_1510_15687" x1="30.5424" y1="25.2031" x2="29.1229" y2="26.8994" gradientUnits="userSpaceOnUse">
<stop stop-color="#F6D3B7"/>
<stop offset="1" stop-color="#F6B4CB"/>
</linearGradient>
<linearGradient id="paint12_linear_1510_15687" x1="27.8458" y1="28.4258" x2="26.4264" y2="30.1221" gradientUnits="userSpaceOnUse">
<stop stop-color="#F6D3B7"/>
<stop offset="1" stop-color="#F6B4CB"/>
</linearGradient>
<linearGradient id="paint13_linear_1510_15687" x1="25.1495" y1="31.6477" x2="22.8773" y2="34.363" gradientUnits="userSpaceOnUse">
<stop stop-color="#F6D3B7"/>
<stop offset="1" stop-color="#F6B4CB"/>
</linearGradient>
<clipPath id="clip0_1510_15687">
<rect width="26.078" height="26.078" fill="white" transform="translate(25.9907 3.17993) rotate(39.9231)"/>
</clipPath>
</defs>
</svg>
