<svg width="108" height="23" viewBox="0 0 108 23" fill="none" xmlns="http://www.w3.org/2000/svg">
<path d="M16.6044 12.18C16.6044 13.0879 16.4851 13.9636 16.2467 14.8073C16.0175 15.6418 15.6873 16.4259 15.2563 17.1595C14.8253 17.884 14.3118 18.5488 13.7157 19.1541C13.1196 19.7501 12.4548 20.2637 11.7211 20.6947C10.9875 21.1257 10.1989 21.4604 9.35519 21.6988C8.52069 21.9281 7.6495 22.0427 6.74164 22.0427H0.79925V2.3173H6.74164C7.6495 2.3173 8.52069 2.43651 9.35519 2.67494C10.1989 2.9042 10.9875 3.23433 11.7211 3.66534C12.4548 4.09634 13.1196 4.61447 13.7157 5.21971C14.3118 5.81579 14.8253 6.48064 15.2563 7.21426C15.6873 7.93872 16.0175 8.72279 16.2467 9.56646C16.4851 10.401 16.6044 11.2721 16.6044 12.18ZM12.6565 12.18C12.6565 11.3638 12.5006 10.5981 12.1888 9.88284C11.8862 9.16755 11.4644 8.54397 10.9233 8.01208C10.3914 7.47103 9.76327 7.04461 9.03881 6.73282C8.32352 6.42103 7.5578 6.26513 6.74164 6.26513H4.7746V18.0949H6.74164C7.5578 18.0949 8.32352 17.9436 9.03881 17.641C9.76327 17.3292 10.3914 16.9073 10.9233 16.3754C11.4644 15.8344 11.8862 15.2062 12.1888 14.4909C12.5006 13.7665 12.6565 12.9962 12.6565 12.18ZM24.5517 18.4388C24.6985 18.4846 24.8452 18.5167 24.9919 18.5351C25.1387 18.5442 25.2854 18.5488 25.4321 18.5488C25.7989 18.5488 26.152 18.4984 26.4913 18.3975C26.8306 18.2966 27.147 18.1545 27.4404 17.9711C27.743 17.7785 28.009 17.5493 28.2382 17.2833C28.4767 17.0082 28.6692 16.7056 28.816 16.3754L31.5671 19.1403C31.2186 19.6355 30.8151 20.0803 30.3566 20.4746C29.9072 20.8689 29.4166 21.2036 28.8847 21.4787C28.362 21.7539 27.8072 21.9602 27.2203 22.0977C26.6426 22.2445 26.0465 22.3178 25.4321 22.3178C24.3959 22.3178 23.4192 22.1253 22.5022 21.7401C21.5943 21.3549 20.7965 20.8185 20.1087 20.1307C19.4301 19.4429 18.8936 18.6268 18.4993 17.6822C18.105 16.7285 17.9078 15.6831 17.9078 14.546C17.9078 13.3813 18.105 12.3176 18.4993 11.3547C18.8936 10.3918 19.4301 9.57104 20.1087 8.89244C20.7965 8.21383 21.5943 7.68654 22.5022 7.31055C23.4192 6.93457 24.3959 6.74658 25.4321 6.74658C26.0465 6.74658 26.6472 6.81994 27.2341 6.96666C27.821 7.11339 28.3758 7.32431 28.8985 7.59942C29.4304 7.87453 29.9256 8.21383 30.3841 8.61733C30.8426 9.01165 31.2461 9.45642 31.5946 9.95161L24.5517 18.4388ZM26.4775 10.6944C26.3033 10.6302 26.129 10.589 25.9548 10.5706C25.7897 10.5523 25.6155 10.5431 25.4321 10.5431C24.9186 10.5431 24.4325 10.6394 23.974 10.832C23.5247 11.0154 23.1303 11.2813 22.791 11.6298C22.4609 11.9783 22.1996 12.4001 22.007 12.8953C21.8144 13.3813 21.7181 13.9315 21.7181 14.546C21.7181 14.6835 21.7227 14.8394 21.7319 15.0136C21.7502 15.1879 21.7731 15.3667 21.8006 15.5501C21.8373 15.7244 21.8786 15.894 21.9244 16.0591C21.9703 16.2241 22.0299 16.3709 22.1033 16.4992L26.4775 10.6944ZM37.3411 22.0427L31.7288 7.31055H36.0068L39.2256 16.4992L42.4306 7.31055H46.7224L41.1101 22.0427H37.3411ZM52.4414 3.30769C52.4414 3.65617 52.3726 3.98171 52.235 4.28434C52.1066 4.58696 51.9278 4.8529 51.6986 5.08216C51.4693 5.30225 51.1988 5.48107 50.887 5.61862C50.5844 5.74701 50.2588 5.8112 49.9103 5.8112C49.5619 5.8112 49.2317 5.74701 48.9199 5.61862C48.6173 5.48107 48.3514 5.30225 48.1221 5.08216C47.902 4.8529 47.7232 4.58696 47.5857 4.28434C47.4573 3.98171 47.3931 3.65617 47.3931 3.30769C47.3931 2.96839 47.4573 2.64743 47.5857 2.34481C47.7232 2.03301 47.902 1.76707 48.1221 1.54699C48.3514 1.31773 48.6173 1.13891 48.9199 1.01052C49.2317 0.872965 49.5619 0.804188 49.9103 0.804188C50.2588 0.804188 50.5844 0.872965 50.887 1.01052C51.1988 1.13891 51.4693 1.31773 51.6986 1.54699C51.9278 1.76707 52.1066 2.03301 52.235 2.34481C52.3726 2.64743 52.4414 2.96839 52.4414 3.30769ZM51.7949 22.0427H48.0121V7.31055H51.7949V22.0427ZM58.2842 22.0427H54.5289V7.31055H55.4368L56.6748 8.74113C57.28 8.19091 57.9632 7.76907 58.7243 7.47562C59.4946 7.173 60.2971 7.02169 61.1316 7.02169C62.0302 7.02169 62.8785 7.19592 63.6763 7.5444C64.4741 7.8837 65.1711 8.35597 65.7672 8.96122C66.3632 9.55729 66.8309 10.2588 67.1702 11.0658C67.5187 11.8636 67.6929 12.7165 67.6929 13.6243V22.0427H63.9377V13.6243C63.9377 13.2392 63.8643 12.877 63.7176 12.5377C63.5709 12.1892 63.3691 11.8866 63.1123 11.6298C62.8556 11.373 62.5575 11.1713 62.2182 11.0245C61.8789 10.8778 61.5167 10.8045 61.1316 10.8045C60.7372 10.8045 60.3658 10.8778 60.0174 11.0245C59.6689 11.1713 59.3663 11.373 59.1095 11.6298C58.8527 11.8866 58.651 12.1892 58.5042 12.5377C58.3575 12.877 58.2842 13.2392 58.2842 13.6243V22.0427ZM76.0943 18.4388C76.241 18.4846 76.3877 18.5167 76.5344 18.5351C76.6812 18.5442 76.8279 18.5488 76.9746 18.5488C77.3414 18.5488 77.6945 18.4984 78.0338 18.3975C78.3731 18.2966 78.6895 18.1545 78.9829 17.9711C79.2855 17.7785 79.5515 17.5493 79.7807 17.2833C80.0192 17.0082 80.2118 16.7056 80.3585 16.3754L83.1096 19.1403C82.7611 19.6355 82.3576 20.0803 81.8991 20.4746C81.4497 20.8689 80.9591 21.2036 80.4273 21.4787C79.9045 21.7539 79.3497 21.9602 78.7628 22.0977C78.1851 22.2445 77.589 22.3178 76.9746 22.3178C75.9384 22.3178 74.9617 22.1253 74.0447 21.7401C73.1368 21.3549 72.339 20.8185 71.6512 20.1307C70.9726 19.4429 70.4362 18.6268 70.0418 17.6822C69.6475 16.7285 69.4503 15.6831 69.4503 14.546C69.4503 13.3813 69.6475 12.3176 70.0418 11.3547C70.4362 10.3918 70.9726 9.57104 71.6512 8.89244C72.339 8.21383 73.1368 7.68654 74.0447 7.31055C74.9617 6.93457 75.9384 6.74658 76.9746 6.74658C77.589 6.74658 78.1897 6.81994 78.7766 6.96666C79.3635 7.11339 79.9183 7.32431 80.441 7.59942C80.9729 7.87453 81.4681 8.21383 81.9266 8.61733C82.3851 9.01165 82.7886 9.45642 83.1371 9.95161L76.0943 18.4388ZM78.02 10.6944C77.8458 10.6302 77.6716 10.589 77.4973 10.5706C77.3323 10.5523 77.158 10.5431 76.9746 10.5431C76.4611 10.5431 75.975 10.6394 75.5165 10.832C75.0672 11.0154 74.6729 11.2813 74.3336 11.6298C74.0034 11.9783 73.7421 12.4001 73.5495 12.8953C73.3569 13.3813 73.2606 13.9315 73.2606 14.546C73.2606 14.6835 73.2652 14.8394 73.2744 15.0136C73.2927 15.1879 73.3156 15.3667 73.3432 15.5501C73.3798 15.7244 73.4211 15.894 73.467 16.0591C73.5128 16.2241 73.5724 16.3709 73.6458 16.4992L78.02 10.6944ZM98.2066 22.0427H94.2587V6.26513H92.2917V2.3173H98.2066V22.0427ZM107.034 22.0427H103.086V6.26513H101.119V2.3173H107.034V22.0427Z" fill="white"/>
</svg>
