<svg width="25" height="25" viewBox="0 0 25 25" fill="none" xmlns="http://www.w3.org/2000/svg">
<path d="M23.5016 17.8299V21.214C23.5028 21.5277 23.4384 21.8382 23.3124 22.1256C23.1865 22.4131 23.0018 22.6712 22.7702 22.8835C22.5385 23.0958 22.265 23.2575 21.9671 23.3584C21.6692 23.4594 21.3535 23.4972 21.0401 23.4696C17.559 23.0926 14.2151 21.9067 11.2771 20.0072C8.5435 18.2752 6.22588 15.9645 4.48884 13.2389C2.57446 10.2966 1.38236 6.94592 1.00916 3.4585C0.980917 3.14652 1.01816 2.83209 1.11851 2.53525C1.21886 2.23841 1.38013 1.96566 1.59203 1.73439C1.80393 1.50311 2.06183 1.31838 2.34928 1.19196C2.63674 1.06554 2.94745 1.0002 3.26163 1.00011H6.65575C7.20466 0.994715 7.73682 1.1885 8.15304 1.54535C8.56926 1.9022 8.84115 2.39776 8.91804 2.93969C9.06141 4.02283 9.32724 5.08632 9.71047 6.10987C9.86214 6.51323 9.8948 6.95146 9.80458 7.37274C9.71435 7.79402 9.50503 8.18073 9.20135 8.48715L7.76375 9.9233C9.37429 12.7474 11.7195 15.0858 14.552 16.6916L15.991 15.2638C16.2983 14.961 16.6862 14.7523 17.1087 14.6623C17.5312 14.5724 17.9708 14.6049 18.3753 14.7562C19.4019 15.1383 20.4685 15.4033 21.5548 15.5463C22.1042 15.6236 22.6059 15.8995 22.9646 16.3216C23.3233 16.7437 23.5139 17.2824 23.5002 17.8355L23.5016 17.8299Z" stroke="white" stroke-width="2" stroke-linecap="round" stroke-linejoin="round"/>
</svg>
