<svg width="150" height="26" viewBox="0 0 150 26" fill="none" xmlns="http://www.w3.org/2000/svg">
<path d="M30.2128 7.25871C24.7747 7.25871 20.5256 11.2725 20.5256 16.6458C20.5256 22.0192 24.6673 25.9987 30.2128 25.9987C35.7583 25.9987 39.9721 21.9505 39.9721 16.6115C39.9721 11.3069 35.8304 7.25871 30.2128 7.25871ZM30.2495 22.1262C27.1527 22.1262 24.8834 19.7877 24.8834 16.6472C24.8834 13.471 27.116 11.1338 30.2128 11.1338C33.3463 11.1338 35.6143 13.5067 35.6143 16.6472C35.6143 19.7877 33.3463 22.1262 30.2495 22.1262ZM41.1598 11.3425H43.861V25.6512H48.1822V7.60752H41.1598V11.3425ZM9.6506 11.1325C11.9199 11.1325 13.7204 12.4933 14.4039 14.5174H18.9778C18.1489 10.1905 14.4759 7.25871 9.68729 7.25871C4.24914 7.25871 0 11.2725 0 16.6472C0 22.0218 4.1418 26 9.68729 26C14.3685 26 18.1136 23.0683 18.9425 18.7056H14.4039C13.7557 20.7297 11.9552 22.1262 9.68595 22.1262C6.55241 22.1262 4.35648 19.7877 4.35648 16.6472C4.35786 13.471 6.51844 11.1325 9.6506 11.1325ZM123.264 14.9019L120.096 14.4487C118.584 14.24 117.503 13.7511 117.503 12.599C117.503 11.3425 118.908 10.715 120.816 10.715C122.905 10.715 124.238 11.587 124.526 13.0178H128.703C128.234 9.38848 125.353 7.26001 120.925 7.26001C116.351 7.26001 113.326 9.52855 113.326 12.7391C113.326 15.8095 115.307 17.5905 119.303 18.1481L122.472 18.6013C124.022 18.81 124.886 19.4045 124.886 20.5209C124.886 21.9518 123.374 22.545 121.285 22.545C118.727 22.545 117.287 21.533 117.071 19.9978H112.822C113.219 23.5227 116.063 26 121.248 26C125.966 26 129.098 23.9059 129.098 20.3109C129.098 17.1004 126.83 15.4251 123.264 14.9019ZM46.0216 0.174399C44.4372 0.174399 43.2485 1.29082 43.2485 2.82606C43.2485 4.3613 44.4359 5.47771 46.0216 5.47771C47.606 5.47771 48.7951 4.3613 48.7951 2.82606C48.7951 1.29082 47.606 0.174399 46.0216 0.174399ZM109.437 13.7854C109.437 9.87732 106.988 7.26001 101.803 7.26001C96.9054 7.26001 94.1687 9.66859 93.628 13.3679H97.9137C98.1297 11.9371 99.282 10.7506 101.731 10.7506C103.928 10.7506 105.008 11.6926 105.008 12.8448C105.008 14.3457 103.027 14.7288 100.579 14.9732C97.2656 15.322 93.1605 16.4384 93.1605 20.6267C93.1605 23.8729 95.6457 25.9656 99.6071 25.9656C102.704 25.9656 104.648 24.7092 105.621 22.7194C105.765 24.4991 107.134 25.6512 109.043 25.6512H111.564V21.9175H109.438V13.7854H109.437ZM105.188 18.3225C105.188 20.731 103.027 22.5107 100.398 22.5107C98.7769 22.5107 97.4085 21.8474 97.4085 20.4523C97.4085 18.6726 99.6054 18.1838 101.622 17.975C103.567 17.8006 104.647 17.3818 105.188 16.5785V18.3225ZM82.2489 7.25871C79.8355 7.25871 77.8191 8.23639 76.3788 9.87602V0H72.0577V25.6512H76.3065V23.2783C77.7468 24.9879 79.8004 26 82.2489 26C87.4341 26 91.36 22.0218 91.36 16.6472C91.36 11.2725 87.3623 7.25871 82.2489 7.25871ZM81.6008 22.1262C78.5039 22.1262 76.2347 19.7877 76.2347 16.6472C76.2347 13.5067 78.5394 11.1338 81.6359 11.1338C84.7696 11.1338 86.9653 13.4723 86.9653 16.6472C86.9653 19.7877 84.6974 22.1262 81.6008 22.1262ZM61.7219 7.25871C58.9132 7.25871 57.076 8.37513 55.996 9.94602V7.60752H51.7099V25.6499H56.0311V15.8439C56.0311 13.0865 57.8315 11.1325 60.4964 11.1325C62.9816 11.1325 64.5293 12.8421 64.5293 15.3207V25.6512H68.8504V15.0076C68.8521 10.4692 66.44 7.25871 61.7219 7.25871ZM149.697 16.054C149.697 10.8894 145.808 7.26001 140.586 7.26001C135.041 7.26001 130.971 11.3082 130.971 16.6472C130.971 22.2663 135.328 26 140.658 26C145.16 26 148.689 23.4171 149.588 19.7533H145.086C144.438 21.3586 142.854 22.2663 140.729 22.2663C137.955 22.2663 135.867 20.591 135.399 17.6592H149.696V16.054H149.697ZM135.652 14.6575C136.337 12.1445 138.281 10.9237 140.514 10.9237C142.963 10.9237 144.835 12.2846 145.267 14.6575H135.652Z" fill="white"/>
</svg>
