<svg width="80" height="112" viewBox="0 0 80 112" fill="none" xmlns="http://www.w3.org/2000/svg">
<path opacity="0.3" fill-rule="evenodd" clip-rule="evenodd" d="M34.8118 98.2107C35.0725 98.9168 35.4782 99.5637 36.0042 100.112C36.5034 100.646 36.8411 101.304 36.9798 102.013C37.1966 102.224 37.9554 102.567 37.305 103.492C36.4168 104.508 35.2519 105.258 33.9446 105.657C33.0112 105.812 32.1394 106.214 31.4242 106.819C31.0719 107.347 31.0719 108.456 29.9879 109.195C28.4838 110.189 26.7868 110.872 25.0014 111.202C22.7791 111.677 21.9661 110.885 22.0745 110.013C22.1829 109.142 24.3239 107.373 24.3781 106.739C24.4323 106.106 24.0258 105.868 25.1098 105.049C26.1938 104.231 27.1965 103.94 27.061 103.333C26.7377 102.62 26.2882 101.967 25.7331 101.406C25.1911 100.772 25.5434 100.957 25.3266 100.376C25.1098 99.7949 24.3239 99.3725 22.752 97.7354C21.4982 96.4385 20.3561 95.0431 19.3374 93.5635C18.443 92.3489 18.1178 91.2135 17.5216 90.923C16.8185 90.6227 16.1761 90.2024 15.6246 89.682C15.2994 89.2596 15.6246 89.1803 15.4078 88.8899C15.191 88.5994 15.0555 88.5202 14.8116 88.177C14.5677 87.8337 14.8116 87.6753 14.8116 87.4377C14.8116 87.2 14.3509 86.8303 14.2967 86.2759C14.2425 85.7214 14.5677 85.6158 14.4322 85.0877C14.4993 84.1934 14.3794 83.2951 14.0799 82.4472C13.7352 81.4689 13.2998 80.5233 12.779 79.6219C12.7341 79.491 12.725 79.3509 12.7528 79.2155C12.7805 79.0801 12.8441 78.9541 12.9372 78.8501C13.0303 78.746 13.1498 78.6675 13.2836 78.6222C13.4175 78.577 13.5612 78.5666 13.7004 78.5922C14.6198 78.831 15.4782 79.2536 16.2208 79.8332C17.1151 80.4405 18.1178 80.5197 18.3888 80.7837C18.522 80.9191 18.6671 81.0428 18.8225 81.1534C18.8136 80.404 18.914 79.6573 19.1206 78.9354C19.4458 77.9585 19.1206 77.5888 19.1206 76.295C19.1697 74.8782 19.5399 73.4896 20.2046 72.2287C20.8752 70.9683 21.4023 69.6401 21.7764 68.268C22.2371 66.3669 23.0772 65.2579 23.1856 64.5714C23.294 63.8849 22.9688 63.6736 23.1856 62.5118C23.3569 61.6862 23.7823 60.9309 24.4052 60.3467C24.8659 59.9506 26.1396 59.713 26.3022 59.4753C26.4648 59.2377 25.5705 59.2905 24.622 58.1551C23.6735 57.0197 24.622 55.8315 24.622 54.5113C24.1862 52.1341 23.5887 49.7877 22.8333 47.4877C22.761 47.2194 22.761 46.9375 22.8333 46.6692C22.6538 47.1886 22.3129 47.6408 21.8577 47.963C21.5262 48.2237 21.1362 48.4047 20.7195 48.4911H20.3672C20.5837 48.7641 20.7742 49.0557 20.9363 49.3624C20.9363 49.5737 20.3943 50.0753 19.7168 49.8641C19.0393 49.6529 18.7954 49.1248 18.5514 49.1248C18.3075 49.1248 18.1991 49.4152 17.4674 49.1248C16.6749 48.9231 15.9036 48.649 15.1639 48.3062C14.7914 48.0464 14.5156 47.6758 14.378 47.2501C14.3036 47.0398 14.1703 46.8542 13.993 46.7141C13.8157 46.5741 13.6017 46.4853 13.3752 46.4579C12.4942 46.5707 11.6007 46.3741 10.8549 45.9034C9.93348 45.2169 9.52697 44.9529 9.36437 44.5568C9.20176 44.1607 9.52697 43.7647 9.09336 43.4214C8.68991 43.1202 8.24226 42.8799 7.76543 42.7085C7.46733 42.7085 7.57573 42.7085 7.00662 42.7085C6.4375 42.7085 6.2749 42.7085 5.81419 42.7085C5.35348 42.7085 5.27218 43.1046 4.18816 42.8669C3.24441 42.5744 2.44389 41.9542 1.93882 41.1242C1.61419 40.5537 1.49043 39.8951 1.58651 39.2495C1.72201 38.8006 1.0716 38.1669 1.2613 37.6652C1.45101 37.1636 1.0716 37.322 0.990298 36.6355C0.908996 35.949 1.50521 35.8433 1.1529 35.3152C0.800592 34.7872 0.800591 34.7343 0.854792 34.3911C0.908993 34.0478 -0.229228 33.2821 0.0417776 32.1731C0.17085 31.3762 0.595044 30.6529 1.2342 30.14C1.77621 29.6119 2.31822 29.5063 2.80603 29.0574C3.2443 28.5137 3.83859 28.1093 4.51337 27.8956C5.43478 27.5787 5.70579 27.8956 5.81419 27.5523C5.92259 27.2091 5.97679 25.5192 6.2749 22.2714C6.57301 19.0237 7.03372 14.8254 7.35893 12.5282C7.59114 9.38263 7.65446 6.2274 7.54863 3.0754C7.54863 1.57034 7.22342 1.17427 7.54863 0.883824C7.87384 0.593374 9.06626 0.118091 9.22886 0.540563C10.1988 3.10328 10.8891 5.75835 11.2885 8.4619C11.3189 11.7107 10.9734 14.9525 10.2587 18.1259C9.66247 20.4231 8.65975 25.5192 8.49715 26.0473C8.33455 26.5754 8.30744 27.1563 8.19904 27.6051C8.09064 28.054 8.19904 28.2917 8.57845 28.9254C8.95786 29.5591 8.57845 29.8759 8.57845 30.3776C8.57845 30.8793 9.17466 31.3546 9.22886 31.777C9.28306 32.1995 9.22886 32.3843 9.22886 32.5428C9.22886 32.7012 10.611 32.7276 11.153 32.8332C11.695 32.9388 11.6137 33.2029 11.8847 33.3085C12.9675 33.379 14.054 33.379 15.1368 33.3085C15.8324 33.2672 16.5262 33.4134 17.1422 33.731C17.6504 33.9083 18.2059 33.9083 18.7141 33.731C18.7141 33.731 18.7141 33.731 18.9309 33.5197C19.1477 33.3085 19.5271 33.5197 19.8252 33.2821C20.1233 33.0445 20.2859 32.5164 20.6111 31.9883C20.8916 31.4601 21.075 30.8882 21.1531 30.2984C21.3157 29.5591 21.7222 29.0838 21.6138 28.8726C20.8994 28.2179 20.2794 27.4717 19.771 26.6546C19.4936 26.1272 19.258 25.5799 19.0664 25.0175V24.6214C18.1777 24.931 17.2731 25.1954 16.3563 25.4136C15.8956 25.4136 16.8712 24.3574 16.9254 23.5124C16.9796 22.6675 16.2479 21.3737 16.7086 19.8422C16.9491 18.8959 17.3961 18.0112 18.019 17.2483C18.642 16.4855 19.4264 15.8623 20.3187 15.4213C21.2111 14.9803 22.1905 14.7319 23.1903 14.6928C24.1901 14.6538 25.1868 14.8251 26.1125 15.195C26.7296 15.4243 27.2901 15.7781 27.7571 16.2331C28.2241 16.6882 28.5872 17.2342 28.8226 17.8355C28.9852 18.2844 28.9852 18.3636 29.3375 18.2844C29.6898 18.2052 30.0421 18.2844 30.2047 18.6804C30.3673 19.0765 30.4215 19.5518 30.557 19.895C30.6925 20.2383 30.2047 20.3439 30.2318 20.74C30.1319 21.1658 30.1319 21.608 30.2318 22.0338C30.5121 22.5522 30.6074 23.1467 30.5028 23.7237C30.3402 24.0933 30.286 24.3574 30.5028 24.4366C30.7196 24.5158 32.0204 24.0141 32.5624 23.9613C33.1044 23.9085 33.2399 23.6445 33.4838 24.199C33.6046 24.7918 33.686 25.3915 33.7277 25.9945C33.7896 26.0793 33.8228 26.1808 33.8228 26.2849C33.8228 26.389 33.7896 26.4905 33.7277 26.5754C33.7277 26.7866 34.4324 27.3147 35.5164 28.2917C36.8735 29.4517 38.0754 30.7735 39.0937 32.2259C39.5814 33.4021 39.8476 34.6544 39.8796 35.9225C39.8175 37.5344 39.8628 39.1484 40.0151 40.7546C40.3132 42.2068 40.4758 42.4709 40.6384 43.131C40.726 43.7019 40.9091 44.2549 41.1804 44.768C41.508 45.312 41.6767 45.9329 41.6682 46.5635C41.6682 47.2237 42.2102 47.6989 42.2102 48.6495C42.1883 49.4565 42.446 50.2471 42.9419 50.8939C43.3282 51.2241 43.6102 51.6545 43.755 52.1349C44.026 52.9798 44.4054 53.3495 44.1886 53.8776C44.1008 54.2483 43.8673 54.5706 43.5382 54.7753C43.24 54.9866 43.1587 55.0394 43.3485 55.277C44.3201 55.9932 45.0627 56.964 45.4894 58.0759C46.0095 59.2516 46.4177 60.4713 46.7089 61.7197C46.9799 62.5646 47.5219 63.1983 48.0368 64.7562C48.5518 66.3141 50.0152 68.6377 50.3946 69.5618C50.774 70.486 51.8309 72.5191 52.0748 73.1528C52.3187 73.7865 52.4542 74.1826 52.7794 74.3674C53.1046 74.5523 53.2672 74.6051 53.4027 74.8427C53.5382 75.0804 53.8364 75.054 54.0803 75.1596C54.3242 75.2652 54.7036 75.3972 54.812 75.7405C54.9204 76.0837 55.0559 76.3478 55.2998 76.4798C55.5437 76.6118 55.4895 77.0079 55.7334 77.0871C55.9773 77.1663 56.7903 76.8495 57.4949 76.8495C58.1995 76.8495 58.7145 76.8495 59.3107 76.8495C60.3073 76.8769 61.2902 77.0828 62.2104 77.4568C62.5627 77.7736 62.4814 77.8264 62.7524 78.1169C63.6178 78.5762 64.5251 78.9563 65.4625 79.2523C66.2484 79.5691 66.9259 80.5989 67.6034 81.2326C68.2809 81.8663 68.3623 81.6815 68.9043 81.7079C69.7248 81.8396 70.493 82.1864 71.1265 82.7113C71.2891 83.0809 71.9666 83.0809 72.6441 83.2657L74.8122 83.7938C76.1081 84.2314 77.3384 84.8352 78.4707 85.5893C80.1781 87.2528 77.6848 88.7051 77.3867 89.9461C77.1351 90.8092 77.1351 91.7234 77.3867 92.5865C77.6577 93.5635 76.7905 94.4876 76.1401 95.227C74.7038 97.1545 72.2105 98.5803 71.5059 95.9927C71.3253 94.8767 71.0349 93.7803 70.6387 92.7186C70.1509 91.8736 70.1238 91.5039 69.4734 91.1871C68.823 90.8702 68.4707 90.8702 68.2267 90.3949C66.5954 89.65 64.8605 89.1429 63.0776 88.8899C60.8533 88.4624 58.6549 87.9159 56.4922 87.2528C55.5708 86.8832 55.3269 86.8039 54.8391 86.9624C54.2318 87.1737 53.5826 87.246 52.942 87.1736C52.4813 87.1736 52.6981 86.8568 52.3187 86.7247C51.9393 86.5927 51.4786 86.8568 51.0992 86.7247C50.7198 86.5927 50.232 86.0382 49.961 85.959C49.69 85.8798 48.9041 86.1438 48.4433 85.959C47.9826 85.7742 48.1452 85.4309 47.4135 85.0877C46.6818 84.7444 45.6791 83.609 44.7035 83.2393C44.1215 83.0625 43.5513 82.8509 42.9961 82.6056C42.5896 82.3152 42.2915 81.8663 42.9961 81.0742C43.7008 80.282 44.1615 79.8068 43.9989 79.5691C42.3578 78.2849 40.6481 77.0862 38.8769 75.9781C37.9856 75.4893 37.1729 74.8754 36.4649 74.1562L36.0855 73.6545C35.2508 75.8984 34.2265 78.0711 33.0231 80.15C32.4916 81.0737 31.8045 81.9038 30.9906 82.6056C30.286 83.2657 29.5543 83.2922 29.3917 83.8731C29.2837 84.2717 29.1195 84.6537 28.9039 85.0084C28.6871 85.4573 28.4973 85.3781 28.4973 85.5629C28.4973 85.7478 28.8497 85.8006 29.202 86.6455C29.3937 87.2727 29.6964 87.8624 30.0963 88.3882C30.7235 89.312 31.216 90.3161 31.5597 91.3719C31.5335 92.0649 31.6065 92.7581 31.7765 93.4315C32.0204 94.0652 32.5353 94.0124 32.5353 94.8045C32.4884 95.4152 32.581 96.0284 32.8063 96.6C33.0502 97.1809 33.511 97.2337 33.9446 97.5242C34.2267 97.7026 34.4981 97.8965 34.7576 98.1051L34.8118 98.2107ZM9.49987 37.8501C9.49987 37.8501 10.069 38.3782 9.90637 38.6422C9.86497 38.7021 9.83899 38.7708 9.83064 38.8425C9.82229 38.9142 9.83182 38.9868 9.85842 39.0542C9.88501 39.1216 9.92789 39.1817 9.98342 39.2295C10.0389 39.2773 10.1055 39.3113 10.1774 39.3287C10.5026 39.4607 10.9904 39.3287 11.2614 39.672C11.5324 40.0152 11.424 39.8304 11.8305 39.672C12.237 39.5135 12.8874 40.3057 13.4565 40.6225C14.0257 40.9394 13.9986 40.9658 14.3238 41.0186C14.649 41.0714 14.5677 40.7282 15.1097 41.0186C15.7218 41.2059 16.3195 41.4353 16.8983 41.7051C17.088 41.8635 16.8983 41.7051 17.6029 41.7051C18.3075 41.7051 18.6599 42.0484 18.958 42.022C19.2561 41.9956 19.2561 41.2298 19.0935 41.045C18.9925 40.9697 18.9177 40.866 18.8789 40.7481C18.8402 40.6301 18.8394 40.5033 18.8767 40.3849C18.8767 39.936 18.8767 39.8304 18.8767 39.6456V39.3287C18.0015 39.6413 17.0921 39.8539 16.1666 39.9624C15.0514 39.8394 13.9579 39.5731 12.9145 39.1703C12.0202 38.8798 11.153 38.4574 10.9904 38.431C10.8278 38.4046 10.7194 38.6422 10.4755 38.6158C10.2316 38.5894 10.1232 38.1933 9.93347 38.1141C9.84818 38.0332 9.7467 37.9703 9.63537 37.9293L9.49987 37.8501Z" fill="#870C09"/>
</svg>
