<svg width="185" height="40" viewBox="0 0 185 40" fill="none" xmlns="http://www.w3.org/2000/svg">
<path d="M-19.2761 0.762525H-34V38.8582H-19.4945C-5.75151 38.8582 2.26355 30.6954 2.26355 19.7024V19.5927C2.26456 8.5992 -5.64307 0.762525 -19.2761 0.762525ZM-8.58785 19.8647C-8.58785 26.013 -12.7866 29.4975 -19.1119 29.4975H-23.4202V10.1232H-19.1119C-12.7866 10.1232 -8.58785 13.6603 -8.58785 19.7555V19.8647ZM9.29819 38.8562H19.9317V0.762525H9.29819V38.8562ZM44.4714 15.1298C39.1812 13.9319 37.8725 13.1703 37.8725 11.4299V11.3196C37.8725 9.95892 39.1275 8.87074 41.6898 8.87074C45.0698 8.87074 48.8875 10.1759 52.3785 12.6263L57.6677 5.16884C53.5226 1.8497 48.4518 0.107214 41.9628 0.107214C32.8012 0.107214 27.1847 5.22244 27.1847 12.2976V12.4068C27.1847 20.2445 33.4558 22.5306 41.5803 24.3788C46.761 25.5757 48.0151 26.4464 48.0151 28.0256V28.1343C48.0151 29.7665 46.4879 30.746 43.6526 30.746C39.2359 30.746 35.0366 29.1688 31.2746 26.1754L25.385 33.1964C30.0748 37.3873 36.5095 39.511 43.2716 39.511C52.5417 39.511 58.7043 34.8858 58.7043 27.1022V26.9935C58.7038 19.8647 53.25 17.0351 44.4714 15.1298ZM105 19.8106V19.7014C105 8.76252 96.2756 0 84.496 0C72.7179 0 63.8835 8.87174 63.8835 19.8106V19.9188C63.8835 30.8577 72.6084 39.6202 84.388 39.6202C88.75 39.6202 92.7309 38.3677 96.003 36.2455L100.201 40L105.545 34.0681L101.62 30.75C103.8 27.6473 105 23.8367 105 19.8106ZM94.258 20.0276C94.258 21.3337 94.0397 22.5852 93.6034 23.727L88.4232 19.0471L83.0793 25.0336L88.369 29.5516C87.1325 30.0205 85.8207 30.2602 84.498 30.259C78.6641 30.259 74.7374 25.4163 74.7374 19.9188V19.8106C74.7374 14.3136 78.6089 9.52405 84.3885 9.52405C90.2786 9.52405 94.26 14.3677 94.26 19.9188V20.0271L94.258 20.0276ZM136.193 22.2044C136.193 27.5366 133.41 30.0396 129.157 30.0396C124.904 30.0396 122.122 27.4289 122.122 21.9314V0.762525H111.381V22.1503C111.381 34.0686 118.197 39.5666 129.048 39.5666C139.9 39.5666 146.934 34.1789 146.934 21.8788V0.762525H136.193V22.2044ZM170.765 15.1298C165.475 13.9319 164.166 13.1703 164.166 11.4299V11.3196C164.166 9.95892 165.421 8.87074 167.985 8.87074C171.363 8.87074 175.183 10.1759 178.672 12.6263L183.962 5.17034C179.819 1.8512 174.748 0.108717 168.259 0.108717C159.097 0.108717 153.481 5.22395 153.481 12.2991V12.4083C153.481 20.246 159.752 22.5311 167.877 24.3803C173.057 25.5782 174.311 26.4489 174.311 28.0276V28.1358C174.311 29.768 172.784 30.7485 169.949 30.7485C165.531 30.7485 161.332 29.1693 157.57 26.1769L151.682 33.1969C156.372 37.3888 162.807 39.511 169.567 39.511C178.838 39.511 185 34.8853 185 27.1027V26.993C184.998 19.8647 179.544 17.0351 170.765 15.1298Z" fill="#808695"/>
</svg>
