<svg width="27" height="22" viewBox="0 0 27 22" fill="none" xmlns="http://www.w3.org/2000/svg">
<path d="M26.2377 3.31842C25.2798 3.73213 24.2591 4.00636 23.195 4.13951C24.2897 3.49595 25.1252 2.48464 25.5181 1.26568C24.4974 1.86485 23.3705 2.28808 22.1695 2.52427C21.2003 1.5082 19.819 0.878906 18.3122 0.878906C15.3886 0.878906 13.0349 3.21538 13.0349 6.07971C13.0349 6.49184 13.0704 6.88812 13.1573 7.26538C8.76711 7.05456 4.88243 4.9828 2.27279 1.82681C1.81719 2.60511 1.54995 3.49595 1.54995 4.45495C1.54995 6.25566 2.49174 7.85188 3.89557 8.77601C3.04715 8.76016 2.21484 8.51763 1.5097 8.13562C1.5097 8.15147 1.5097 8.17207 1.5097 8.19268C1.5097 10.7194 3.34015 12.8181 5.7405 13.3015C5.31066 13.4173 4.84218 13.4727 4.356 13.4727C4.01792 13.4727 3.67662 13.4537 3.35625 13.384C4.04046 15.443 5.98199 16.9568 8.29058 17.006C6.49394 18.3898 4.21272 19.2236 1.74314 19.2236C1.31008 19.2236 0.894723 19.2046 0.47937 19.1522C2.81855 20.6375 5.59078 21.4856 8.58036 21.4856C18.2977 21.4856 23.6103 13.5599 23.6103 6.68998C23.6103 6.46014 23.6023 6.23822 23.591 6.01789C24.6391 5.28556 25.5197 4.37094 26.2377 3.31842Z" fill="white"/>
</svg>
